<?xml version="1.0" encoding="utf-8" standalone="no"?>
<!DOCTYPE svg PUBLIC "-//W3C//DTD SVG 1.1//EN"
  "http://www.w3.org/Graphics/SVG/1.1/DTD/svg11.dtd">
<svg xmlns:xlink="http://www.w3.org/1999/xlink" width="288pt" height="216pt" viewBox="0 0 288 216" xmlns="http://www.w3.org/2000/svg" version="1.1">
 <metadata>
  <rdf:RDF xmlns:dc="http://purl.org/dc/elements/1.1/" xmlns:cc="http://creativecommons.org/ns#" xmlns:rdf="http://www.w3.org/1999/02/22-rdf-syntax-ns#">
   <cc:Work>
    <dc:type rdf:resource="http://purl.org/dc/dcmitype/StillImage"/>
    <dc:date>2025-06-17T11:09:19.024417</dc:date>
    <dc:format>image/svg+xml</dc:format>
    <dc:creator>
     <cc:Agent>
      <dc:title>Matplotlib v3.10.3, https://matplotlib.org/</dc:title>
     </cc:Agent>
    </dc:creator>
   </cc:Work>
  </rdf:RDF>
 </metadata>
 <defs>
  <style type="text/css">*{stroke-linejoin: round; stroke-linecap: butt}</style>
 </defs>
 <g id="figure_1">
  <g id="patch_1">
   <path d="M 0 216 
L 288 216 
L 288 0 
L 0 0 
z
" style="fill: #ffffff"/>
  </g>
  <g id="axes_1">
   <g id="patch_2">
    <path d="M 36.403365 182.64351 
L 284.99976 182.64351 
L 284.99976 6.799459 
L 36.403365 6.799459 
z
" style="fill: #ffffff"/>
   </g>
   <g id="matplotlib.axis_1">
    <g id="xtick_1">
     <g id="line2d_1">
      <defs>
       <path id="m8c7f25d3a3" d="M 0 0 
L 0 3.5 
" style="stroke: #000000; stroke-width: 0.8"/>
      </defs>
      <g>
       <use xlink:href="#m8c7f25d3a3" x="36.403365" y="182.64351" style="stroke: #000000; stroke-width: 0.8"/>
      </g>
     </g>
     <g id="text_1">
      <!-- 0 -->
      <g transform="translate(33.222115 197.241948) scale(0.1 -0.1)">
       <defs>
        <path id="DejaVuSans-30" d="M 2034 4250 
Q 1547 4250 1301 3770 
Q 1056 3291 1056 2328 
Q 1056 1369 1301 889 
Q 1547 409 2034 409 
Q 2525 409 2770 889 
Q 3016 1369 3016 2328 
Q 3016 3291 2770 3770 
Q 2525 4250 2034 4250 
z
M 2034 4750 
Q 2819 4750 3233 4129 
Q 3647 3509 3647 2328 
Q 3647 1150 3233 529 
Q 2819 -91 2034 -91 
Q 1250 -91 836 529 
Q 422 1150 422 2328 
Q 422 3509 836 4129 
Q 1250 4750 2034 4750 
z
" transform="scale(0.015625)"/>
       </defs>
       <use xlink:href="#DejaVuSans-30"/>
      </g>
     </g>
    </g>
    <g id="xtick_2">
     <g id="line2d_2">
      <g>
       <use xlink:href="#m8c7f25d3a3" x="67.871263" y="182.64351" style="stroke: #000000; stroke-width: 0.8"/>
      </g>
     </g>
     <g id="text_2">
      <!-- 10 -->
      <g transform="translate(61.508763 197.241948) scale(0.1 -0.1)">
       <defs>
        <path id="DejaVuSans-31" d="M 794 531 
L 1825 531 
L 1825 4091 
L 703 3866 
L 703 4441 
L 1819 4666 
L 2450 4666 
L 2450 531 
L 3481 531 
L 3481 0 
L 794 0 
L 794 531 
z
" transform="scale(0.015625)"/>
       </defs>
       <use xlink:href="#DejaVuSans-31"/>
       <use xlink:href="#DejaVuSans-30" transform="translate(63.623047 0)"/>
      </g>
     </g>
    </g>
    <g id="xtick_3">
     <g id="line2d_3">
      <g>
       <use xlink:href="#m8c7f25d3a3" x="99.339161" y="182.64351" style="stroke: #000000; stroke-width: 0.8"/>
      </g>
     </g>
     <g id="text_3">
      <!-- 20 -->
      <g transform="translate(92.976661 197.241948) scale(0.1 -0.1)">
       <defs>
        <path id="DejaVuSans-32" d="M 1228 531 
L 3431 531 
L 3431 0 
L 469 0 
L 469 531 
Q 828 903 1448 1529 
Q 2069 2156 2228 2338 
Q 2531 2678 2651 2914 
Q 2772 3150 2772 3378 
Q 2772 3750 2511 3984 
Q 2250 4219 1831 4219 
Q 1534 4219 1204 4116 
Q 875 4013 500 3803 
L 500 4441 
Q 881 4594 1212 4672 
Q 1544 4750 1819 4750 
Q 2544 4750 2975 4387 
Q 3406 4025 3406 3419 
Q 3406 3131 3298 2873 
Q 3191 2616 2906 2266 
Q 2828 2175 2409 1742 
Q 1991 1309 1228 531 
z
" transform="scale(0.015625)"/>
       </defs>
       <use xlink:href="#DejaVuSans-32"/>
       <use xlink:href="#DejaVuSans-30" transform="translate(63.623047 0)"/>
      </g>
     </g>
    </g>
    <g id="xtick_4">
     <g id="line2d_4">
      <g>
       <use xlink:href="#m8c7f25d3a3" x="130.807059" y="182.64351" style="stroke: #000000; stroke-width: 0.8"/>
      </g>
     </g>
     <g id="text_4">
      <!-- 30 -->
      <g transform="translate(124.444559 197.241948) scale(0.1 -0.1)">
       <defs>
        <path id="DejaVuSans-33" d="M 2597 2516 
Q 3050 2419 3304 2112 
Q 3559 1806 3559 1356 
Q 3559 666 3084 287 
Q 2609 -91 1734 -91 
Q 1441 -91 1130 -33 
Q 819 25 488 141 
L 488 750 
Q 750 597 1062 519 
Q 1375 441 1716 441 
Q 2309 441 2620 675 
Q 2931 909 2931 1356 
Q 2931 1769 2642 2001 
Q 2353 2234 1838 2234 
L 1294 2234 
L 1294 2753 
L 1863 2753 
Q 2328 2753 2575 2939 
Q 2822 3125 2822 3475 
Q 2822 3834 2567 4026 
Q 2313 4219 1838 4219 
Q 1578 4219 1281 4162 
Q 984 4106 628 3988 
L 628 4550 
Q 988 4650 1302 4700 
Q 1616 4750 1894 4750 
Q 2613 4750 3031 4423 
Q 3450 4097 3450 3541 
Q 3450 3153 3228 2886 
Q 3006 2619 2597 2516 
z
" transform="scale(0.015625)"/>
       </defs>
       <use xlink:href="#DejaVuSans-33"/>
       <use xlink:href="#DejaVuSans-30" transform="translate(63.623047 0)"/>
      </g>
     </g>
    </g>
    <g id="xtick_5">
     <g id="line2d_5">
      <g>
       <use xlink:href="#m8c7f25d3a3" x="162.274957" y="182.64351" style="stroke: #000000; stroke-width: 0.8"/>
      </g>
     </g>
     <g id="text_5">
      <!-- 40 -->
      <g transform="translate(155.912457 197.241948) scale(0.1 -0.1)">
       <defs>
        <path id="DejaVuSans-34" d="M 2419 4116 
L 825 1625 
L 2419 1625 
L 2419 4116 
z
M 2253 4666 
L 3047 4666 
L 3047 1625 
L 3713 1625 
L 3713 1100 
L 3047 1100 
L 3047 0 
L 2419 0 
L 2419 1100 
L 313 1100 
L 313 1709 
L 2253 4666 
z
" transform="scale(0.015625)"/>
       </defs>
       <use xlink:href="#DejaVuSans-34"/>
       <use xlink:href="#DejaVuSans-30" transform="translate(63.623047 0)"/>
      </g>
     </g>
    </g>
    <g id="xtick_6">
     <g id="line2d_6">
      <g>
       <use xlink:href="#m8c7f25d3a3" x="193.742856" y="182.64351" style="stroke: #000000; stroke-width: 0.8"/>
      </g>
     </g>
     <g id="text_6">
      <!-- 50 -->
      <g transform="translate(187.380356 197.241948) scale(0.1 -0.1)">
       <defs>
        <path id="DejaVuSans-35" d="M 691 4666 
L 3169 4666 
L 3169 4134 
L 1269 4134 
L 1269 2991 
Q 1406 3038 1543 3061 
Q 1681 3084 1819 3084 
Q 2600 3084 3056 2656 
Q 3513 2228 3513 1497 
Q 3513 744 3044 326 
Q 2575 -91 1722 -91 
Q 1428 -91 1123 -41 
Q 819 9 494 109 
L 494 744 
Q 775 591 1075 516 
Q 1375 441 1709 441 
Q 2250 441 2565 725 
Q 2881 1009 2881 1497 
Q 2881 1984 2565 2268 
Q 2250 2553 1709 2553 
Q 1456 2553 1204 2497 
Q 953 2441 691 2322 
L 691 4666 
z
" transform="scale(0.015625)"/>
       </defs>
       <use xlink:href="#DejaVuSans-35"/>
       <use xlink:href="#DejaVuSans-30" transform="translate(63.623047 0)"/>
      </g>
     </g>
    </g>
    <g id="xtick_7">
     <g id="line2d_7">
      <g>
       <use xlink:href="#m8c7f25d3a3" x="225.210754" y="182.64351" style="stroke: #000000; stroke-width: 0.8"/>
      </g>
     </g>
     <g id="text_7">
      <!-- 60 -->
      <g transform="translate(218.848254 197.241948) scale(0.1 -0.1)">
       <defs>
        <path id="DejaVuSans-36" d="M 2113 2584 
Q 1688 2584 1439 2293 
Q 1191 2003 1191 1497 
Q 1191 994 1439 701 
Q 1688 409 2113 409 
Q 2538 409 2786 701 
Q 3034 994 3034 1497 
Q 3034 2003 2786 2293 
Q 2538 2584 2113 2584 
z
M 3366 4563 
L 3366 3988 
Q 3128 4100 2886 4159 
Q 2644 4219 2406 4219 
Q 1781 4219 1451 3797 
Q 1122 3375 1075 2522 
Q 1259 2794 1537 2939 
Q 1816 3084 2150 3084 
Q 2853 3084 3261 2657 
Q 3669 2231 3669 1497 
Q 3669 778 3244 343 
Q 2819 -91 2113 -91 
Q 1303 -91 875 529 
Q 447 1150 447 2328 
Q 447 3434 972 4092 
Q 1497 4750 2381 4750 
Q 2619 4750 2861 4703 
Q 3103 4656 3366 4563 
z
" transform="scale(0.015625)"/>
       </defs>
       <use xlink:href="#DejaVuSans-36"/>
       <use xlink:href="#DejaVuSans-30" transform="translate(63.623047 0)"/>
      </g>
     </g>
    </g>
    <g id="xtick_8">
     <g id="line2d_8">
      <g>
       <use xlink:href="#m8c7f25d3a3" x="256.678652" y="182.64351" style="stroke: #000000; stroke-width: 0.8"/>
      </g>
     </g>
     <g id="text_8">
      <!-- 70 -->
      <g transform="translate(250.316152 197.241948) scale(0.1 -0.1)">
       <defs>
        <path id="DejaVuSans-37" d="M 525 4666 
L 3525 4666 
L 3525 4397 
L 1831 0 
L 1172 0 
L 2766 4134 
L 525 4134 
L 525 4666 
z
" transform="scale(0.015625)"/>
       </defs>
       <use xlink:href="#DejaVuSans-37"/>
       <use xlink:href="#DejaVuSans-30" transform="translate(63.623047 0)"/>
      </g>
     </g>
    </g>
    <g id="text_9">
     <!-- Longitude [E] -->
     <g transform="translate(127.182031 210.920073) scale(0.1 -0.1)">
      <defs>
       <path id="DejaVuSans-4c" d="M 628 4666 
L 1259 4666 
L 1259 531 
L 3531 531 
L 3531 0 
L 628 0 
L 628 4666 
z
" transform="scale(0.015625)"/>
       <path id="DejaVuSans-6f" d="M 1959 3097 
Q 1497 3097 1228 2736 
Q 959 2375 959 1747 
Q 959 1119 1226 758 
Q 1494 397 1959 397 
Q 2419 397 2687 759 
Q 2956 1122 2956 1747 
Q 2956 2369 2687 2733 
Q 2419 3097 1959 3097 
z
M 1959 3584 
Q 2709 3584 3137 3096 
Q 3566 2609 3566 1747 
Q 3566 888 3137 398 
Q 2709 -91 1959 -91 
Q 1206 -91 779 398 
Q 353 888 353 1747 
Q 353 2609 779 3096 
Q 1206 3584 1959 3584 
z
" transform="scale(0.015625)"/>
       <path id="DejaVuSans-6e" d="M 3513 2113 
L 3513 0 
L 2938 0 
L 2938 2094 
Q 2938 2591 2744 2837 
Q 2550 3084 2163 3084 
Q 1697 3084 1428 2787 
Q 1159 2491 1159 1978 
L 1159 0 
L 581 0 
L 581 3500 
L 1159 3500 
L 1159 2956 
Q 1366 3272 1645 3428 
Q 1925 3584 2291 3584 
Q 2894 3584 3203 3211 
Q 3513 2838 3513 2113 
z
" transform="scale(0.015625)"/>
       <path id="DejaVuSans-67" d="M 2906 1791 
Q 2906 2416 2648 2759 
Q 2391 3103 1925 3103 
Q 1463 3103 1205 2759 
Q 947 2416 947 1791 
Q 947 1169 1205 825 
Q 1463 481 1925 481 
Q 2391 481 2648 825 
Q 2906 1169 2906 1791 
z
M 3481 434 
Q 3481 -459 3084 -895 
Q 2688 -1331 1869 -1331 
Q 1566 -1331 1297 -1286 
Q 1028 -1241 775 -1147 
L 775 -588 
Q 1028 -725 1275 -790 
Q 1522 -856 1778 -856 
Q 2344 -856 2625 -561 
Q 2906 -266 2906 331 
L 2906 616 
Q 2728 306 2450 153 
Q 2172 0 1784 0 
Q 1141 0 747 490 
Q 353 981 353 1791 
Q 353 2603 747 3093 
Q 1141 3584 1784 3584 
Q 2172 3584 2450 3431 
Q 2728 3278 2906 2969 
L 2906 3500 
L 3481 3500 
L 3481 434 
z
" transform="scale(0.015625)"/>
       <path id="DejaVuSans-69" d="M 603 3500 
L 1178 3500 
L 1178 0 
L 603 0 
L 603 3500 
z
M 603 4863 
L 1178 4863 
L 1178 4134 
L 603 4134 
L 603 4863 
z
" transform="scale(0.015625)"/>
       <path id="DejaVuSans-74" d="M 1172 4494 
L 1172 3500 
L 2356 3500 
L 2356 3053 
L 1172 3053 
L 1172 1153 
Q 1172 725 1289 603 
Q 1406 481 1766 481 
L 2356 481 
L 2356 0 
L 1766 0 
Q 1100 0 847 248 
Q 594 497 594 1153 
L 594 3053 
L 172 3053 
L 172 3500 
L 594 3500 
L 594 4494 
L 1172 4494 
z
" transform="scale(0.015625)"/>
       <path id="DejaVuSans-75" d="M 544 1381 
L 544 3500 
L 1119 3500 
L 1119 1403 
Q 1119 906 1312 657 
Q 1506 409 1894 409 
Q 2359 409 2629 706 
Q 2900 1003 2900 1516 
L 2900 3500 
L 3475 3500 
L 3475 0 
L 2900 0 
L 2900 538 
Q 2691 219 2414 64 
Q 2138 -91 1772 -91 
Q 1169 -91 856 284 
Q 544 659 544 1381 
z
M 1991 3584 
L 1991 3584 
z
" transform="scale(0.015625)"/>
       <path id="DejaVuSans-64" d="M 2906 2969 
L 2906 4863 
L 3481 4863 
L 3481 0 
L 2906 0 
L 2906 525 
Q 2725 213 2448 61 
Q 2172 -91 1784 -91 
Q 1150 -91 751 415 
Q 353 922 353 1747 
Q 353 2572 751 3078 
Q 1150 3584 1784 3584 
Q 2172 3584 2448 3432 
Q 2725 3281 2906 2969 
z
M 947 1747 
Q 947 1113 1208 752 
Q 1469 391 1925 391 
Q 2381 391 2643 752 
Q 2906 1113 2906 1747 
Q 2906 2381 2643 2742 
Q 2381 3103 1925 3103 
Q 1469 3103 1208 2742 
Q 947 2381 947 1747 
z
" transform="scale(0.015625)"/>
       <path id="DejaVuSans-65" d="M 3597 1894 
L 3597 1613 
L 953 1613 
Q 991 1019 1311 708 
Q 1631 397 2203 397 
Q 2534 397 2845 478 
Q 3156 559 3463 722 
L 3463 178 
Q 3153 47 2828 -22 
Q 2503 -91 2169 -91 
Q 1331 -91 842 396 
Q 353 884 353 1716 
Q 353 2575 817 3079 
Q 1281 3584 2069 3584 
Q 2775 3584 3186 3129 
Q 3597 2675 3597 1894 
z
M 3022 2063 
Q 3016 2534 2758 2815 
Q 2500 3097 2075 3097 
Q 1594 3097 1305 2825 
Q 1016 2553 972 2059 
L 3022 2063 
z
" transform="scale(0.015625)"/>
       <path id="DejaVuSans-20" transform="scale(0.015625)"/>
       <path id="DejaVuSans-5b" d="M 550 4863 
L 1875 4863 
L 1875 4416 
L 1125 4416 
L 1125 -397 
L 1875 -397 
L 1875 -844 
L 550 -844 
L 550 4863 
z
" transform="scale(0.015625)"/>
       <path id="DejaVuSans-45" d="M 628 4666 
L 3578 4666 
L 3578 4134 
L 1259 4134 
L 1259 2753 
L 3481 2753 
L 3481 2222 
L 1259 2222 
L 1259 531 
L 3634 531 
L 3634 0 
L 628 0 
L 628 4666 
z
" transform="scale(0.015625)"/>
       <path id="DejaVuSans-5d" d="M 1947 4863 
L 1947 -844 
L 622 -844 
L 622 -397 
L 1369 -397 
L 1369 4416 
L 622 4416 
L 622 4863 
L 1947 4863 
z
" transform="scale(0.015625)"/>
      </defs>
      <use xlink:href="#DejaVuSans-4c"/>
      <use xlink:href="#DejaVuSans-6f" transform="translate(53.962891 0)"/>
      <use xlink:href="#DejaVuSans-6e" transform="translate(115.144531 0)"/>
      <use xlink:href="#DejaVuSans-67" transform="translate(178.523438 0)"/>
      <use xlink:href="#DejaVuSans-69" transform="translate(242 0)"/>
      <use xlink:href="#DejaVuSans-74" transform="translate(269.783203 0)"/>
      <use xlink:href="#DejaVuSans-75" transform="translate(308.992188 0)"/>
      <use xlink:href="#DejaVuSans-64" transform="translate(372.371094 0)"/>
      <use xlink:href="#DejaVuSans-65" transform="translate(435.847656 0)"/>
      <use xlink:href="#DejaVuSans-20" transform="translate(497.371094 0)"/>
      <use xlink:href="#DejaVuSans-5b" transform="translate(529.158203 0)"/>
      <use xlink:href="#DejaVuSans-45" transform="translate(568.171875 0)"/>
      <use xlink:href="#DejaVuSans-5d" transform="translate(631.355469 0)"/>
     </g>
    </g>
   </g>
   <g id="matplotlib.axis_2">
    <g id="ytick_1">
     <g id="line2d_9">
      <defs>
       <path id="m88d728a3e9" d="M 0 0 
L -3.5 0 
" style="stroke: #000000; stroke-width: 0.8"/>
      </defs>
      <g>
       <use xlink:href="#m88d728a3e9" x="36.403365" y="182.64351" style="stroke: #000000; stroke-width: 0.8"/>
      </g>
     </g>
     <g id="text_10">
      <!-- 15 -->
      <g transform="translate(16.678365 186.442729) scale(0.1 -0.1)">
       <use xlink:href="#DejaVuSans-31"/>
       <use xlink:href="#DejaVuSans-35" transform="translate(63.623047 0)"/>
      </g>
     </g>
    </g>
    <g id="ytick_2">
     <g id="line2d_10">
      <g>
       <use xlink:href="#m88d728a3e9" x="36.403365" y="153.336168" style="stroke: #000000; stroke-width: 0.8"/>
      </g>
     </g>
     <g id="text_11">
      <!-- 20 -->
      <g transform="translate(16.678365 157.135387) scale(0.1 -0.1)">
       <use xlink:href="#DejaVuSans-32"/>
       <use xlink:href="#DejaVuSans-30" transform="translate(63.623047 0)"/>
      </g>
     </g>
    </g>
    <g id="ytick_3">
     <g id="line2d_11">
      <g>
       <use xlink:href="#m88d728a3e9" x="36.403365" y="124.028826" style="stroke: #000000; stroke-width: 0.8"/>
      </g>
     </g>
     <g id="text_12">
      <!-- 25 -->
      <g transform="translate(16.678365 127.828045) scale(0.1 -0.1)">
       <use xlink:href="#DejaVuSans-32"/>
       <use xlink:href="#DejaVuSans-35" transform="translate(63.623047 0)"/>
      </g>
     </g>
    </g>
    <g id="ytick_4">
     <g id="line2d_12">
      <g>
       <use xlink:href="#m88d728a3e9" x="36.403365" y="94.721484" style="stroke: #000000; stroke-width: 0.8"/>
      </g>
     </g>
     <g id="text_13">
      <!-- 30 -->
      <g transform="translate(16.678365 98.520703) scale(0.1 -0.1)">
       <use xlink:href="#DejaVuSans-33"/>
       <use xlink:href="#DejaVuSans-30" transform="translate(63.623047 0)"/>
      </g>
     </g>
    </g>
    <g id="ytick_5">
     <g id="line2d_13">
      <g>
       <use xlink:href="#m88d728a3e9" x="36.403365" y="65.414142" style="stroke: #000000; stroke-width: 0.8"/>
      </g>
     </g>
     <g id="text_14">
      <!-- 35 -->
      <g transform="translate(16.678365 69.213361) scale(0.1 -0.1)">
       <use xlink:href="#DejaVuSans-33"/>
       <use xlink:href="#DejaVuSans-35" transform="translate(63.623047 0)"/>
      </g>
     </g>
    </g>
    <g id="ytick_6">
     <g id="line2d_14">
      <g>
       <use xlink:href="#m88d728a3e9" x="36.403365" y="36.106801" style="stroke: #000000; stroke-width: 0.8"/>
      </g>
     </g>
     <g id="text_15">
      <!-- 40 -->
      <g transform="translate(16.678365 39.906019) scale(0.1 -0.1)">
       <use xlink:href="#DejaVuSans-34"/>
       <use xlink:href="#DejaVuSans-30" transform="translate(63.623047 0)"/>
      </g>
     </g>
    </g>
    <g id="ytick_7">
     <g id="line2d_15">
      <g>
       <use xlink:href="#m88d728a3e9" x="36.403365" y="6.799459" style="stroke: #000000; stroke-width: 0.8"/>
      </g>
     </g>
     <g id="text_16">
      <!-- 45 -->
      <g transform="translate(16.678365 10.598677) scale(0.1 -0.1)">
       <use xlink:href="#DejaVuSans-34"/>
       <use xlink:href="#DejaVuSans-35" transform="translate(63.623047 0)"/>
      </g>
     </g>
    </g>
    <g id="text_17">
     <!-- Latitude [N] -->
     <g transform="translate(10.598678 124.531641) rotate(-90) scale(0.1 -0.1)">
      <defs>
       <path id="DejaVuSans-61" d="M 2194 1759 
Q 1497 1759 1228 1600 
Q 959 1441 959 1056 
Q 959 750 1161 570 
Q 1363 391 1709 391 
Q 2188 391 2477 730 
Q 2766 1069 2766 1631 
L 2766 1759 
L 2194 1759 
z
M 3341 1997 
L 3341 0 
L 2766 0 
L 2766 531 
Q 2569 213 2275 61 
Q 1981 -91 1556 -91 
Q 1019 -91 701 211 
Q 384 513 384 1019 
Q 384 1609 779 1909 
Q 1175 2209 1959 2209 
L 2766 2209 
L 2766 2266 
Q 2766 2663 2505 2880 
Q 2244 3097 1772 3097 
Q 1472 3097 1187 3025 
Q 903 2953 641 2809 
L 641 3341 
Q 956 3463 1253 3523 
Q 1550 3584 1831 3584 
Q 2591 3584 2966 3190 
Q 3341 2797 3341 1997 
z
" transform="scale(0.015625)"/>
       <path id="DejaVuSans-4e" d="M 628 4666 
L 1478 4666 
L 3547 763 
L 3547 4666 
L 4159 4666 
L 4159 0 
L 3309 0 
L 1241 3903 
L 1241 0 
L 628 0 
L 628 4666 
z
" transform="scale(0.015625)"/>
      </defs>
      <use xlink:href="#DejaVuSans-4c"/>
      <use xlink:href="#DejaVuSans-61" transform="translate(55.712891 0)"/>
      <use xlink:href="#DejaVuSans-74" transform="translate(116.992188 0)"/>
      <use xlink:href="#DejaVuSans-69" transform="translate(156.201172 0)"/>
      <use xlink:href="#DejaVuSans-74" transform="translate(183.984375 0)"/>
      <use xlink:href="#DejaVuSans-75" transform="translate(223.193359 0)"/>
      <use xlink:href="#DejaVuSans-64" transform="translate(286.572266 0)"/>
      <use xlink:href="#DejaVuSans-65" transform="translate(350.048828 0)"/>
      <use xlink:href="#DejaVuSans-20" transform="translate(411.572266 0)"/>
      <use xlink:href="#DejaVuSans-5b" transform="translate(443.359375 0)"/>
      <use xlink:href="#DejaVuSans-4e" transform="translate(482.373047 0)"/>
      <use xlink:href="#DejaVuSans-5d" transform="translate(557.177734 0)"/>
     </g>
    </g>
   </g>
   <g id="QuadContourSet_1">
    <path d="M 284.99976 182.64351 
L 284.99976 176.782042 
L 284.99976 171.577134 
M 284.99976 158.541076 
L 284.99976 153.336168 
L 284.99976 147.4747 
L 284.99976 141.613231 
L 284.99976 135.751763 
L 284.99976 129.890295 
L 284.99976 124.028826 
L 284.99976 118.167358 
L 284.99976 112.30589 
L 284.99976 106.444421 
L 284.99976 100.582953 
L 284.99976 94.721484 
L 284.99976 88.860016 
L 284.99976 82.998548 
L 284.99976 77.137079 
L 284.99976 71.275611 
L 284.99976 65.414142 
L 284.99976 59.552674 
L 284.99976 53.691206 
L 284.99976 47.829737 
L 284.99976 41.968269 
L 284.99976 36.106801 
L 284.99976 30.245332 
L 284.99976 24.383864 
L 284.99976 18.522395 
L 284.99976 12.660927 
L 284.99976 6.799459 
" clip-path="url(#p87f0d44254)" style="fill: none; stroke: #440154; stroke-width: 1.5"/>
    <path d="M 36.403365 174.915001 
L 38.981383 174.833145 
M 52.705568 174.367836 
L 77.311633 173.37993 
L 99.339161 172.273157 
L 118.2199 171.091804 
L 130.807059 170.126 
L 143.394219 168.983953 
L 155.981378 167.619068 
L 165.421747 166.406835 
L 174.862117 164.984285 
L 184.302486 163.239557 
L 190.596066 161.882546 
L 196.889645 160.331677 
L 203.183225 158.510895 
L 209.476805 156.323432 
L 215.770384 153.738248 
L 218.917174 152.193906 
L 222.063964 150.46753 
L 226.863246 147.4747 
L 228.357543 146.35735 
L 231.504333 143.800223 
L 234.651123 140.855134 
L 239.017087 135.751763 
L 240.944703 132.858402 
L 242.76111 129.890295 
L 245.541581 124.028826 
L 247.594084 118.167358 
L 249.069418 112.30589 
L 250.064556 106.444421 
L 250.639746 100.582953 
L 250.827974 94.721484 
L 250.639746 88.860016 
L 250.064556 82.998548 
L 249.069418 77.137079 
L 247.238282 70.213871 
L 245.541581 65.414142 
L 242.76111 59.552674 
L 240.944703 56.584567 
L 239.017087 53.691206 
L 237.797913 52.171109 
L 233.930827 47.829737 
L 231.504333 45.642745 
L 226.863246 41.968269 
L 225.210754 40.883539 
L 222.063964 38.975439 
L 216.656188 36.106801 
L 212.623594 34.355929 
L 206.330015 31.982056 
L 200.036435 29.972886 
L 193.742856 28.309118 
L 187.449276 26.86003 
L 181.155696 25.586589 
L 171.715327 23.956533 
L 162.274957 22.611334 
L 152.834588 21.458306 
L 140.247429 20.154884 
L 127.660269 19.060009 
L 111.92632 17.928741 
L 93.045582 16.827671 
L 71.018053 15.788671 
L 45.843734 14.835604 
L 36.403365 14.527968 
L 36.403365 14.527968 
" clip-path="url(#p87f0d44254)" style="fill: none; stroke: #472d7b; stroke-width: 1.5"/>
    <path d="M 36.403365 167.035969 
L 48.73699 166.203736 
M 68.118148 164.692785 
L 83.605212 163.239557 
L 99.339161 161.514543 
L 111.92632 159.908713 
L 121.36669 158.510895 
L 130.807059 156.903779 
L 140.247429 155.08704 
L 149.687798 152.996872 
L 155.981378 151.351772 
L 162.274957 149.537943 
L 168.726731 147.4747 
L 174.862117 145.115317 
L 181.155696 142.405427 
L 184.302486 140.855134 
L 190.596066 137.27186 
L 193.742856 135.238409 
L 196.889645 132.858402 
L 200.52246 129.890295 
L 203.183225 127.185149 
L 206.330015 123.693961 
L 210.188407 118.167358 
L 213.139076 112.30589 
L 215.129352 106.444421 
L 216.279733 100.582953 
L 216.656188 94.721484 
L 216.279733 88.860016 
L 215.129352 82.998548 
L 213.139076 77.137079 
L 210.188407 71.275611 
L 209.476805 70.213871 
L 206.083401 65.414142 
L 203.183225 62.25782 
L 200.036435 59.140872 
L 196.889645 56.584567 
L 193.034413 53.691206 
L 187.449276 50.321677 
L 182.861895 47.829737 
L 178.008906 45.642745 
L 171.715327 43.085619 
L 168.568537 41.914945 
L 162.274957 39.905026 
L 155.981378 38.091197 
L 148.312617 36.106801 
L 140.247429 34.355929 
L 130.807059 32.539189 
L 121.36669 30.932074 
L 111.92632 29.534256 
L 99.339161 27.928425 
L 86.752002 26.52651 
L 71.018053 25.00605 
L 55.284104 23.716977 
L 36.403365 22.407 
L 36.403365 22.407 
" clip-path="url(#p87f0d44254)" style="fill: none; stroke: #3b528b; stroke-width: 1.5"/>
    <path d="M 36.403365 158.843168 
L 39.550155 158.510895 
L 42.696945 158.169992 
L 45.843734 157.820117 
L 48.990524 157.460913 
L 52.137314 157.092 
L 55.284104 156.71298 
L 58.430894 156.323432 
L 61.577683 155.922911 
L 64.724473 155.510946 
L 67.871263 155.08704 
L 71.018053 154.650666 
L 74.164843 154.201266 
L 77.311633 153.738248 
L 79.969045 153.336168 
L 80.458422 153.256292 
L 83.605212 152.733399 
L 86.752002 152.193906 
L 89.898792 151.637011 
L 93.045582 151.061856 
L 96.192371 150.46753 
L 99.339161 149.853057 
L 102.485951 149.217395 
L 105.632741 148.55943 
L 108.779531 147.877965 
L 110.590217 147.4747 
L 111.92632 147.147734 
L 115.07311 146.35735 
L 118.2199 145.537139 
L 121.36669 144.685382 
L 124.51348 143.800223 
L 127.660269 142.879658 
L 130.807059 141.921518 
L 131.792962 141.613231 
L 133.953849 140.855134 
L 137.100639 139.711536 
L 140.247429 138.518216 
L 143.394219 137.27186 
L 146.541008 135.968852 
L 147.05174 135.751763 
L 149.687798 134.463523 
L 152.834588 132.858402 
L 155.981378 131.174982 
L 158.28381 129.890295 
L 159.128168 129.332308 
L 162.274957 127.185149 
L 165.421747 124.924982 
L 166.625222 124.028826 
L 168.568537 122.245898 
L 171.715327 119.229098 
L 172.782731 118.167358 
L 174.862117 115.472247 
L 177.208734 112.30589 
L 178.008906 110.766944 
L 180.194149 106.444421 
L 181.155696 103.202239 
L 181.919719 100.582953 
L 182.484403 94.721484 
L 181.919719 88.860016 
L 181.155696 86.240729 
L 180.194149 82.998548 
L 178.008906 78.676024 
L 177.208734 77.137079 
L 174.862117 73.970721 
L 172.782731 71.275611 
L 171.715327 70.213871 
L 168.568537 67.197071 
L 166.625222 65.414142 
L 165.421747 64.517986 
L 162.274957 62.25782 
L 159.128168 60.110661 
L 158.28381 59.552674 
L 155.981378 58.267987 
L 152.834588 56.584567 
L 149.687798 54.979446 
L 147.05174 53.691206 
L 146.541008 53.474117 
L 143.394219 52.171109 
L 140.247429 50.924753 
L 137.100639 49.731433 
L 133.953849 48.587835 
L 131.792962 47.829737 
L 130.807059 47.521451 
L 127.660269 46.563311 
L 124.51348 45.642745 
L 121.36669 44.757586 
L 118.2199 43.905829 
L 115.07311 43.085619 
L 111.92632 42.295235 
L 110.590217 41.968269 
L 108.779531 41.565004 
L 105.632741 40.883539 
L 102.485951 40.225574 
L 99.339161 39.589912 
L 96.192371 38.975439 
L 93.045582 38.381113 
L 89.898792 37.805958 
L 86.752002 37.249062 
L 83.605212 36.70957 
L 80.458422 36.186677 
L 79.969045 36.106801 
L 77.311633 35.70472 
L 74.345302 35.268255 
M 55.087317 32.706286 
L 52.137314 32.350969 
L 48.990524 31.982056 
L 45.843734 31.622852 
L 42.696945 31.272977 
L 39.550155 30.932074 
L 36.403365 30.599801 
" clip-path="url(#p87f0d44254)" style="fill: none; stroke: #2c728e; stroke-width: 1.5"/>
    <path d="M 36.403365 150.00862 
L 39.550155 149.537943 
L 42.696945 149.05504 
L 45.71352 148.579938 
M 64.808947 145.097921 
L 67.871263 144.4673 
L 71.018053 143.800223 
L 74.164843 143.113234 
L 77.311633 142.405427 
L 80.458422 141.675841 
L 80.72403 141.613231 
L 83.605212 140.855134 
L 86.752002 140.001973 
L 89.898792 139.121292 
L 93.045582 138.211735 
L 96.192371 137.27186 
L 99.339161 136.300125 
L 101.069067 135.751763 
L 102.485951 135.238409 
L 105.632741 134.069283 
L 108.779531 132.858402 
L 111.92632 131.603488 
L 115.07311 130.302097 
L 116.045159 129.890295 
L 118.2199 128.805646 
L 121.36669 127.185149 
L 124.51348 125.501103 
L 127.167042 124.028826 
L 127.660269 123.693961 
L 130.807059 121.50709 
L 133.953849 119.229098 
L 135.377054 118.167358 
L 137.100639 116.503776 
L 140.247429 113.364342 
L 141.278392 112.30589 
L 143.394219 109.231308 
L 145.258945 106.444421 
L 146.541008 103.202239 
L 147.559706 100.582953 
L 148.312617 94.721484 
L 147.559706 88.860016 
L 146.541008 86.240729 
L 145.258945 82.998548 
L 143.394219 80.211661 
L 141.278392 77.137079 
L 140.247429 76.078627 
L 137.100639 72.939193 
L 135.377054 71.275611 
L 133.953849 70.213871 
L 130.807059 67.935879 
L 127.660269 65.749007 
L 127.167042 65.414142 
L 124.51348 63.941865 
L 121.36669 62.25782 
L 118.2199 60.637323 
L 116.045159 59.552674 
L 115.07311 59.140872 
L 111.92632 57.83948 
L 108.779531 56.584567 
L 105.632741 55.373686 
L 102.485951 54.204559 
L 101.069067 53.691206 
L 99.339161 53.142844 
L 96.192371 52.171109 
L 93.045582 51.231234 
L 89.898792 50.321677 
L 86.752002 49.440995 
L 83.605212 48.587835 
L 80.72403 47.829737 
L 80.458422 47.767127 
L 77.311633 47.037542 
L 74.164843 46.329735 
L 71.018053 45.642745 
L 67.871263 44.975669 
L 64.724473 44.327652 
L 61.577683 43.697889 
L 58.430894 43.085619 
L 55.284104 42.490124 
L 52.453702 41.968269 
L 52.137314 41.914945 
L 48.990524 41.392366 
L 45.843734 40.883539 
L 42.696945 40.387929 
L 39.550155 39.905026 
L 36.403365 39.434349 
" clip-path="url(#p87f0d44254)" style="fill: none; stroke: #21918c; stroke-width: 1.5"/>
    <path d="M 36.403365 140.174765 
L 39.550155 139.476952 
L 42.696945 138.761013 
L 45.843734 138.026234 
L 48.990524 137.27186 
L 52.137314 136.497098 
L 55.086393 135.751763 
L 55.284104 135.694849 
L 58.430894 134.77563 
L 61.577683 133.830517 
L 64.724473 132.858402 
L 67.871263 131.858109 
L 71.018053 130.828395 
L 73.806509 129.890295 
L 74.164843 129.748921 
L 77.311633 128.486457 
L 80.458422 127.185149 
L 83.605212 125.843175 
L 86.752002 124.458599 
L 87.708863 124.028826 
L 89.898792 122.829794 
L 93.045582 121.05896 
L 96.192371 119.229098 
L 97.971378 118.167358 
L 99.339161 117.115699 
L 102.485951 114.636354 
L 105.348051 112.30589 
L 105.632741 111.979289 
L 108.779531 108.298957 
L 110.323741 106.444421 
L 111.92632 103.202239 
L 113.199692 100.582953 
L 114.140831 94.721484 
L 113.199692 88.860016 
L 111.92632 86.240729 
L 110.323741 82.998548 
L 108.779531 81.144012 
L 105.632741 77.463679 
L 105.348051 77.137079 
L 102.485951 74.806615 
L 99.339161 72.32727 
L 97.971378 71.275611 
L 96.192371 70.213871 
L 93.045582 68.384009 
L 89.898792 66.613174 
L 87.708863 65.414142 
L 86.752002 64.98437 
L 86.182899 64.733967 
M 68.219105 57.698683 
L 67.871263 57.58486 
L 64.724473 56.584567 
L 61.577683 55.612451 
L 58.430894 54.667339 
L 55.284104 53.74812 
L 55.086393 53.691206 
L 52.137314 52.94587 
L 48.990524 52.171109 
L 45.843734 51.416735 
L 42.696945 50.681956 
L 39.550155 49.966017 
L 36.403365 49.268203 
" clip-path="url(#p87f0d44254)" style="fill: none; stroke: #28ae80; stroke-width: 1.5"/>
    <path d="M 36.403365 128.272318 
L 39.550155 127.185149 
L 42.696945 126.069742 
L 45.843734 124.924982 
L 46.490109 124.684324 
M 63.687499 116.147307 
L 64.724473 115.472247 
L 67.871263 113.364342 
L 69.417709 112.30589 
L 71.018053 110.766944 
L 74.164843 107.672751 
L 75.388537 106.444421 
L 77.311633 103.202239 
L 78.839679 100.582953 
L 79.969045 94.721484 
L 78.839679 88.860016 
L 77.311633 86.240729 
L 75.388537 82.998548 
L 74.164843 81.770218 
L 71.018053 78.676024 
L 69.417709 77.137079 
L 67.871263 76.078627 
L 64.724473 73.970721 
L 61.577683 71.922193 
L 60.565702 71.275611 
L 58.430894 70.213871 
L 55.284104 68.684808 
L 52.137314 67.197071 
L 48.990524 65.749007 
L 48.250683 65.414142 
L 45.843734 64.517986 
L 42.696945 63.373227 
L 39.550155 62.25782 
L 36.403365 61.170651 
" clip-path="url(#p87f0d44254)" style="fill: none; stroke: #5ec962; stroke-width: 1.5"/>
    <path d="M 36.403365 109.892215 
L 39.550155 107.223167 
L 40.453333 106.444421 
L 42.628644 103.300939 
M 42.628644 86.14203 
L 40.453333 82.998548 
L 39.550155 82.219802 
L 36.403365 79.550754 
" clip-path="url(#p87f0d44254)" style="fill: none; stroke: #addc30; stroke-width: 1.5"/>
    <path clip-path="url(#p87f0d44254)" style="fill: none; stroke: #fde725; stroke-width: 1.5"/>
   </g>
   <g id="patch_3">
    <path d="M 36.403365 182.64351 
L 36.403365 6.799459 
" style="fill: none; stroke: #000000; stroke-width: 0.8; stroke-linejoin: miter; stroke-linecap: square"/>
   </g>
   <g id="patch_4">
    <path d="M 284.99976 182.64351 
L 284.99976 6.799459 
" style="fill: none; stroke: #000000; stroke-width: 0.8; stroke-linejoin: miter; stroke-linecap: square"/>
   </g>
   <g id="patch_5">
    <path d="M 36.403365 182.64351 
L 284.99976 182.64351 
" style="fill: none; stroke: #000000; stroke-width: 0.8; stroke-linejoin: miter; stroke-linecap: square"/>
   </g>
   <g id="patch_6">
    <path d="M 36.403365 6.799459 
L 284.99976 6.799459 
" style="fill: none; stroke: #000000; stroke-width: 0.8; stroke-linejoin: miter; stroke-linecap: square"/>
   </g>
   <g id="text_18">
    <g clip-path="url(#p87f0d44254)">
     <!-- 0 -->
     <g style="fill: #440154" transform="translate(282.79226 162.514105) rotate(-270) scale(0.08 -0.08)">
      <use xlink:href="#DejaVuSans-30"/>
     </g>
    </g>
   </g>
   <g id="text_19">
    <g clip-path="url(#p87f0d44254)">
     <!-- 8 -->
     <g style="fill: #472d7b" transform="translate(43.379091 176.904235) rotate(-2.044053) scale(0.08 -0.08)">
      <defs>
       <path id="DejaVuSans-38" d="M 2034 2216 
Q 1584 2216 1326 1975 
Q 1069 1734 1069 1313 
Q 1069 891 1326 650 
Q 1584 409 2034 409 
Q 2484 409 2743 651 
Q 3003 894 3003 1313 
Q 3003 1734 2745 1975 
Q 2488 2216 2034 2216 
z
M 1403 2484 
Q 997 2584 770 2862 
Q 544 3141 544 3541 
Q 544 4100 942 4425 
Q 1341 4750 2034 4750 
Q 2731 4750 3128 4425 
Q 3525 4100 3525 3541 
Q 3525 3141 3298 2862 
Q 3072 2584 2669 2484 
Q 3125 2378 3379 2068 
Q 3634 1759 3634 1313 
Q 3634 634 3220 271 
Q 2806 -91 2034 -91 
Q 1263 -91 848 271 
Q 434 634 434 1313 
Q 434 1759 690 2068 
Q 947 2378 1403 2484 
z
M 1172 3481 
Q 1172 3119 1398 2916 
Q 1625 2713 2034 2713 
Q 2441 2713 2670 2916 
Q 2900 3119 2900 3481 
Q 2900 3844 2670 4047 
Q 2441 4250 2034 4250 
Q 1625 4250 1398 4047 
Q 1172 3844 1172 3481 
z
" transform="scale(0.015625)"/>
      </defs>
      <use xlink:href="#DejaVuSans-38"/>
     </g>
    </g>
   </g>
   <g id="text_20">
    <g clip-path="url(#p87f0d44254)">
     <!-- 16 -->
     <g style="fill: #3b528b" transform="translate(53.536766 168.099607) rotate(-4.653484) scale(0.08 -0.08)">
      <use xlink:href="#DejaVuSans-31"/>
      <use xlink:href="#DejaVuSans-36" transform="translate(63.623047 0)"/>
     </g>
    </g>
   </g>
   <g id="text_21">
    <g clip-path="url(#p87f0d44254)">
     <!-- 24 -->
     <g style="fill: #2c728e" transform="translate(59.377589 35.412557) rotate(-352.031163) scale(0.08 -0.08)">
      <use xlink:href="#DejaVuSans-32"/>
      <use xlink:href="#DejaVuSans-34" transform="translate(63.623047 0)"/>
     </g>
    </g>
   </g>
   <g id="text_22">
    <g clip-path="url(#p87f0d44254)">
     <!-- 32 -->
     <g style="fill: #21918c" transform="translate(50.705563 150.086233) rotate(-10.940262) scale(0.08 -0.08)">
      <use xlink:href="#DejaVuSans-33"/>
      <use xlink:href="#DejaVuSans-32" transform="translate(63.623047 0)"/>
     </g>
    </g>
   </g>
   <g id="text_23">
    <g clip-path="url(#p87f0d44254)">
     <!-- 40 -->
     <g style="fill: #28ae80" transform="translate(71.763934 61.021316) rotate(-337.223196) scale(0.08 -0.08)">
      <use xlink:href="#DejaVuSans-34"/>
      <use xlink:href="#DejaVuSans-30" transform="translate(63.623047 0)"/>
     </g>
    </g>
   </g>
   <g id="text_24">
    <g clip-path="url(#p87f0d44254)">
     <!-- 48 -->
     <g style="fill: #5ec962" transform="translate(51.734472 125.022111) rotate(-26.777404) scale(0.08 -0.08)">
      <use xlink:href="#DejaVuSans-34"/>
      <use xlink:href="#DejaVuSans-38" transform="translate(63.623047 0)"/>
     </g>
    </g>
   </g>
   <g id="text_25">
    <g clip-path="url(#p87f0d44254)">
     <!-- 56 -->
     <g style="fill: #addc30" transform="translate(48.00476 99.811484) rotate(-90) scale(0.08 -0.08)">
      <use xlink:href="#DejaVuSans-35"/>
      <use xlink:href="#DejaVuSans-36" transform="translate(63.623047 0)"/>
     </g>
    </g>
   </g>
  </g>
 </g>
 <defs>
  <clipPath id="p87f0d44254">
   <rect x="36.403365" y="6.799459" width="248.596395" height="175.844051"/>
  </clipPath>
 </defs>
</svg>
