<?xml version="1.0" encoding="utf-8" standalone="no"?>
<!DOCTYPE svg PUBLIC "-//W3C//DTD SVG 1.1//EN"
  "http://www.w3.org/Graphics/SVG/1.1/DTD/svg11.dtd">
<svg xmlns:xlink="http://www.w3.org/1999/xlink" width="576pt" height="216pt" viewBox="0 0 576 216" xmlns="http://www.w3.org/2000/svg" version="1.1">
 <metadata>
  <rdf:RDF xmlns:dc="http://purl.org/dc/elements/1.1/" xmlns:cc="http://creativecommons.org/ns#" xmlns:rdf="http://www.w3.org/1999/02/22-rdf-syntax-ns#">
   <cc:Work>
    <dc:type rdf:resource="http://purl.org/dc/dcmitype/StillImage"/>
    <dc:date>2025-06-17T10:55:33.403232</dc:date>
    <dc:format>image/svg+xml</dc:format>
    <dc:creator>
     <cc:Agent>
      <dc:title>Matplotlib v3.10.3, https://matplotlib.org/</dc:title>
     </cc:Agent>
    </dc:creator>
   </cc:Work>
  </rdf:RDF>
 </metadata>
 <defs>
  <style type="text/css">*{stroke-linejoin: round; stroke-linecap: butt}</style>
 </defs>
 <g id="figure_1">
  <g id="patch_1">
   <path d="M 0 216 
L 576 216 
L 576 0 
L 0 0 
z
" style="fill: #ffffff"/>
  </g>
  <g id="axes_1">
   <g id="patch_2">
    <path d="M 36.403365 178.421635 
L 292.587599 178.421635 
L 292.587599 3.00024 
L 36.403365 3.00024 
z
" style="fill: #ffffff"/>
   </g>
   <g id="patch_3">
    <path d="M 91.531618 165.303613 
L 101.260133 161.702587 
L 101.260133 165.301041 
L 166.116901 165.301041 
L 166.116901 165.306185 
L 101.260133 165.306185 
L 101.260133 168.904638 
z
" clip-path="url(#p7fc86b13e4)" style="fill: #ff7f0e; stroke: #ff7f0e; stroke-width: 4; stroke-linejoin: miter"/>
   </g>
   <g id="patch_4">
    <path d="M 36.403365 170.447935 
L 34.781946 165.303613 
L 36.401744 165.303613 
L 36.401744 165.303613 
L 36.404986 165.303613 
L 36.404986 165.303613 
L 38.024784 165.303613 
z
" clip-path="url(#p7fc86b13e4)" style="fill: #1f77b4; stroke: #1f77b4; stroke-linejoin: miter"/>
   </g>
   <g id="patch_5">
    <path d="M 68.831749 170.447935 
L 67.21033 165.303613 
L 68.830128 165.303613 
L 68.830128 165.303613 
L 68.83337 165.303613 
L 68.83337 165.303613 
L 70.453168 165.303613 
z
" clip-path="url(#p7fc86b13e4)" style="fill: #1f77b4; stroke: #1f77b4; stroke-linejoin: miter"/>
   </g>
   <g id="patch_6">
    <path d="M 101.260133 170.447935 
L 99.638714 165.303613 
L 101.258512 165.303613 
L 101.258512 165.303613 
L 101.261754 165.303613 
L 101.261754 165.303613 
L 102.881552 165.303613 
z
" clip-path="url(#p7fc86b13e4)" style="fill: #1f77b4; stroke: #1f77b4; stroke-linejoin: miter"/>
   </g>
   <g id="patch_7">
    <path d="M 133.688517 170.447935 
L 132.067098 165.303613 
L 133.686896 165.303613 
L 133.686896 165.303613 
L 133.690138 165.303613 
L 133.690138 165.303613 
L 135.309936 165.303613 
z
" clip-path="url(#p7fc86b13e4)" style="fill: #1f77b4; stroke: #1f77b4; stroke-linejoin: miter"/>
   </g>
   <g id="patch_8">
    <path d="M 166.116901 170.447935 
L 164.495482 165.303613 
L 166.11528 165.303613 
L 166.11528 165.303613 
L 166.118522 165.303613 
L 166.118522 165.303613 
L 167.73832 165.303613 
z
" clip-path="url(#p7fc86b13e4)" style="fill: #1f77b4; stroke: #1f77b4; stroke-linejoin: miter"/>
   </g>
   <g id="patch_9">
    <path d="M 198.545285 170.447935 
L 196.923866 165.303613 
L 198.543664 165.303613 
L 198.543664 165.303613 
L 198.546906 165.303613 
L 198.546906 165.303613 
L 200.166704 165.303613 
z
" clip-path="url(#p7fc86b13e4)" style="fill: #1f77b4; stroke: #1f77b4; stroke-linejoin: miter"/>
   </g>
   <g id="patch_10">
    <path d="M 230.973669 170.447935 
L 229.35225 165.303613 
L 230.972048 165.303613 
L 230.972048 165.303613 
L 230.97529 165.303613 
L 230.97529 165.303613 
L 232.595088 165.303613 
z
" clip-path="url(#p7fc86b13e4)" style="fill: #1f77b4; stroke: #1f77b4; stroke-linejoin: miter"/>
   </g>
   <g id="patch_11">
    <path d="M 263.402053 170.447935 
L 261.780634 165.303613 
L 263.400431 165.303613 
L 263.400431 165.303613 
L 263.403674 165.303613 
L 263.403674 165.303613 
L 265.023472 165.303613 
z
" clip-path="url(#p7fc86b13e4)" style="fill: #1f77b4; stroke: #1f77b4; stroke-linejoin: miter"/>
   </g>
   <g id="patch_12">
    <path d="M 97.13878 144.726323 
L 106.867295 141.125297 
L 106.867295 144.723751 
L 166.116901 144.723751 
L 166.116901 144.728895 
L 106.867295 144.728895 
L 106.867295 148.327349 
z
" clip-path="url(#p7fc86b13e4)" style="fill: #ff7f0e; stroke: #ff7f0e; stroke-width: 4; stroke-linejoin: miter"/>
   </g>
   <g id="patch_13">
    <path d="M 36.403365 153.915922 
L 34.781946 148.7716 
L 36.401744 148.7716 
L 36.401744 144.726323 
L 36.404986 144.726323 
L 36.404986 148.7716 
L 38.024784 148.7716 
z
" clip-path="url(#p7fc86b13e4)" style="fill: #1f77b4; stroke: #1f77b4; stroke-linejoin: miter"/>
   </g>
   <g id="patch_14">
    <path d="M 68.831749 153.915922 
L 67.21033 148.7716 
L 68.830128 148.7716 
L 68.830128 144.726323 
L 68.83337 144.726323 
L 68.83337 148.7716 
L 70.453168 148.7716 
z
" clip-path="url(#p7fc86b13e4)" style="fill: #1f77b4; stroke: #1f77b4; stroke-linejoin: miter"/>
   </g>
   <g id="patch_15">
    <path d="M 101.260133 153.915922 
L 99.638714 148.7716 
L 101.258512 148.7716 
L 101.258512 144.726323 
L 101.261754 144.726323 
L 101.261754 148.7716 
L 102.881552 148.7716 
z
" clip-path="url(#p7fc86b13e4)" style="fill: #1f77b4; stroke: #1f77b4; stroke-linejoin: miter"/>
   </g>
   <g id="patch_16">
    <path d="M 133.688517 153.915922 
L 132.067098 148.7716 
L 133.686896 148.7716 
L 133.686896 144.726323 
L 133.690138 144.726323 
L 133.690138 148.7716 
L 135.309936 148.7716 
z
" clip-path="url(#p7fc86b13e4)" style="fill: #1f77b4; stroke: #1f77b4; stroke-linejoin: miter"/>
   </g>
   <g id="patch_17">
    <path d="M 166.116901 153.915922 
L 164.495482 148.7716 
L 166.11528 148.7716 
L 166.11528 144.726323 
L 166.118522 144.726323 
L 166.118522 148.7716 
L 167.73832 148.7716 
z
" clip-path="url(#p7fc86b13e4)" style="fill: #1f77b4; stroke: #1f77b4; stroke-linejoin: miter"/>
   </g>
   <g id="patch_18">
    <path d="M 198.545285 153.915922 
L 196.923866 148.7716 
L 198.543664 148.7716 
L 198.543664 144.726323 
L 198.546906 144.726323 
L 198.546906 148.7716 
L 200.166704 148.7716 
z
" clip-path="url(#p7fc86b13e4)" style="fill: #1f77b4; stroke: #1f77b4; stroke-linejoin: miter"/>
   </g>
   <g id="patch_19">
    <path d="M 230.973669 153.915922 
L 229.35225 148.7716 
L 230.972048 148.7716 
L 230.972048 144.726323 
L 230.97529 144.726323 
L 230.97529 148.7716 
L 232.595088 148.7716 
z
" clip-path="url(#p7fc86b13e4)" style="fill: #1f77b4; stroke: #1f77b4; stroke-linejoin: miter"/>
   </g>
   <g id="patch_20">
    <path d="M 263.402053 153.915922 
L 261.780634 148.7716 
L 263.400431 148.7716 
L 263.400431 144.726323 
L 263.403674 144.726323 
L 263.403674 148.7716 
L 265.023472 148.7716 
z
" clip-path="url(#p7fc86b13e4)" style="fill: #1f77b4; stroke: #1f77b4; stroke-linejoin: miter"/>
   </g>
   <g id="patch_21">
    <path d="M 112.990737 124.149033 
L 122.719252 120.548008 
L 122.719252 124.146461 
L 166.116901 124.146461 
L 166.116901 124.151605 
L 122.719252 124.151605 
L 122.719252 127.750059 
z
" clip-path="url(#p7fc86b13e4)" style="fill: #ff7f0e; stroke: #ff7f0e; stroke-width: 4; stroke-linejoin: miter"/>
   </g>
   <g id="patch_22">
    <path d="M 36.403365 136.684444 
L 34.781946 131.540121 
L 36.401744 131.540121 
L 36.401744 124.149033 
L 36.404986 124.149033 
L 36.404986 131.540121 
L 38.024784 131.540121 
z
" clip-path="url(#p7fc86b13e4)" style="fill: #1f77b4; stroke: #1f77b4; stroke-linejoin: miter"/>
   </g>
   <g id="patch_23">
    <path d="M 68.831749 136.684444 
L 67.21033 131.540121 
L 68.830128 131.540121 
L 68.830128 124.149033 
L 68.83337 124.149033 
L 68.83337 131.540121 
L 70.453168 131.540121 
z
" clip-path="url(#p7fc86b13e4)" style="fill: #1f77b4; stroke: #1f77b4; stroke-linejoin: miter"/>
   </g>
   <g id="patch_24">
    <path d="M 101.260133 136.684444 
L 99.638714 131.540121 
L 101.258512 131.540121 
L 101.258512 124.149033 
L 101.261754 124.149033 
L 101.261754 131.540121 
L 102.881552 131.540121 
z
" clip-path="url(#p7fc86b13e4)" style="fill: #1f77b4; stroke: #1f77b4; stroke-linejoin: miter"/>
   </g>
   <g id="patch_25">
    <path d="M 133.688517 136.684444 
L 132.067098 131.540121 
L 133.686896 131.540121 
L 133.686896 124.149033 
L 133.690138 124.149033 
L 133.690138 131.540121 
L 135.309936 131.540121 
z
" clip-path="url(#p7fc86b13e4)" style="fill: #1f77b4; stroke: #1f77b4; stroke-linejoin: miter"/>
   </g>
   <g id="patch_26">
    <path d="M 166.116901 136.684444 
L 164.495482 131.540121 
L 166.11528 131.540121 
L 166.11528 124.149033 
L 166.118522 124.149033 
L 166.118522 131.540121 
L 167.73832 131.540121 
z
" clip-path="url(#p7fc86b13e4)" style="fill: #1f77b4; stroke: #1f77b4; stroke-linejoin: miter"/>
   </g>
   <g id="patch_27">
    <path d="M 198.545285 136.684444 
L 196.923866 131.540121 
L 198.543664 131.540121 
L 198.543664 124.149033 
L 198.546906 124.149033 
L 198.546906 131.540121 
L 200.166704 131.540121 
z
" clip-path="url(#p7fc86b13e4)" style="fill: #1f77b4; stroke: #1f77b4; stroke-linejoin: miter"/>
   </g>
   <g id="patch_28">
    <path d="M 230.973669 136.684444 
L 229.35225 131.540121 
L 230.972048 131.540121 
L 230.972048 124.149033 
L 230.97529 124.149033 
L 230.97529 131.540121 
L 232.595088 131.540121 
z
" clip-path="url(#p7fc86b13e4)" style="fill: #1f77b4; stroke: #1f77b4; stroke-linejoin: miter"/>
   </g>
   <g id="patch_29">
    <path d="M 263.402053 136.684444 
L 261.780634 131.540121 
L 263.400431 131.540121 
L 263.400431 124.149033 
L 263.403674 124.149033 
L 263.403674 131.540121 
L 265.023472 131.540121 
z
" clip-path="url(#p7fc86b13e4)" style="fill: #1f77b4; stroke: #1f77b4; stroke-linejoin: miter"/>
   </g>
   <g id="patch_30">
    <path d="M 136.346542 103.571744 
L 146.075057 99.970718 
L 146.075057 103.569171 
L 166.116901 103.569171 
L 166.116901 103.574316 
L 146.075057 103.574316 
L 146.075057 107.172769 
z
" clip-path="url(#p7fc86b13e4)" style="fill: #ff7f0e; stroke: #ff7f0e; stroke-width: 4; stroke-linejoin: miter"/>
   </g>
   <g id="patch_31">
    <path d="M 36.403365 118.174979 
L 34.781946 113.030657 
L 36.401744 113.030657 
L 36.401744 103.571744 
L 36.404986 103.571744 
L 36.404986 113.030657 
L 38.024784 113.030657 
z
" clip-path="url(#p7fc86b13e4)" style="fill: #1f77b4; stroke: #1f77b4; stroke-linejoin: miter"/>
   </g>
   <g id="patch_32">
    <path d="M 68.831749 118.174979 
L 67.21033 113.030657 
L 68.830128 113.030657 
L 68.830128 103.571744 
L 68.83337 103.571744 
L 68.83337 113.030657 
L 70.453168 113.030657 
z
" clip-path="url(#p7fc86b13e4)" style="fill: #1f77b4; stroke: #1f77b4; stroke-linejoin: miter"/>
   </g>
   <g id="patch_33">
    <path d="M 101.260133 118.174979 
L 99.638714 113.030657 
L 101.258512 113.030657 
L 101.258512 103.571744 
L 101.261754 103.571744 
L 101.261754 113.030657 
L 102.881552 113.030657 
z
" clip-path="url(#p7fc86b13e4)" style="fill: #1f77b4; stroke: #1f77b4; stroke-linejoin: miter"/>
   </g>
   <g id="patch_34">
    <path d="M 133.688517 118.174979 
L 132.067098 113.030657 
L 133.686896 113.030657 
L 133.686896 103.571744 
L 133.690138 103.571744 
L 133.690138 113.030657 
L 135.309936 113.030657 
z
" clip-path="url(#p7fc86b13e4)" style="fill: #1f77b4; stroke: #1f77b4; stroke-linejoin: miter"/>
   </g>
   <g id="patch_35">
    <path d="M 166.116901 118.174979 
L 164.495482 113.030657 
L 166.11528 113.030657 
L 166.11528 103.571744 
L 166.118522 103.571744 
L 166.118522 113.030657 
L 167.73832 113.030657 
z
" clip-path="url(#p7fc86b13e4)" style="fill: #1f77b4; stroke: #1f77b4; stroke-linejoin: miter"/>
   </g>
   <g id="patch_36">
    <path d="M 198.545285 118.174979 
L 196.923866 113.030657 
L 198.543664 113.030657 
L 198.543664 103.571744 
L 198.546906 103.571744 
L 198.546906 113.030657 
L 200.166704 113.030657 
z
" clip-path="url(#p7fc86b13e4)" style="fill: #1f77b4; stroke: #1f77b4; stroke-linejoin: miter"/>
   </g>
   <g id="patch_37">
    <path d="M 230.973669 118.174979 
L 229.35225 113.030657 
L 230.972048 113.030657 
L 230.972048 103.571744 
L 230.97529 103.571744 
L 230.97529 113.030657 
L 232.595088 113.030657 
z
" clip-path="url(#p7fc86b13e4)" style="fill: #1f77b4; stroke: #1f77b4; stroke-linejoin: miter"/>
   </g>
   <g id="patch_38">
    <path d="M 263.402053 118.174979 
L 261.780634 113.030657 
L 263.400431 113.030657 
L 263.400431 103.571744 
L 263.403674 103.571744 
L 263.403674 113.030657 
L 265.023472 113.030657 
z
" clip-path="url(#p7fc86b13e4)" style="fill: #1f77b4; stroke: #1f77b4; stroke-linejoin: miter"/>
   </g>
   <g id="patch_39">
    <path d="M 182.624794 82.994454 
L 172.896279 86.59548 
L 172.896279 82.997026 
L 166.116901 82.997026 
L 166.116901 82.991882 
L 172.896279 82.991882 
L 172.896279 79.393428 
z
" clip-path="url(#p7fc86b13e4)" style="fill: #ff7f0e; stroke: #ff7f0e; stroke-width: 4; stroke-linejoin: miter"/>
   </g>
   <g id="patch_40">
    <path d="M 36.403365 98.029983 
L 34.781946 92.88566 
L 36.401744 92.88566 
L 36.401744 82.994454 
L 36.404986 82.994454 
L 36.404986 92.88566 
L 38.024784 92.88566 
z
" clip-path="url(#p7fc86b13e4)" style="fill: #1f77b4; stroke: #1f77b4; stroke-linejoin: miter"/>
   </g>
   <g id="patch_41">
    <path d="M 68.831749 98.029983 
L 67.21033 92.88566 
L 68.830128 92.88566 
L 68.830128 82.994454 
L 68.83337 82.994454 
L 68.83337 92.88566 
L 70.453168 92.88566 
z
" clip-path="url(#p7fc86b13e4)" style="fill: #1f77b4; stroke: #1f77b4; stroke-linejoin: miter"/>
   </g>
   <g id="patch_42">
    <path d="M 101.260133 98.029983 
L 99.638714 92.88566 
L 101.258512 92.88566 
L 101.258512 82.994454 
L 101.261754 82.994454 
L 101.261754 92.88566 
L 102.881552 92.88566 
z
" clip-path="url(#p7fc86b13e4)" style="fill: #1f77b4; stroke: #1f77b4; stroke-linejoin: miter"/>
   </g>
   <g id="patch_43">
    <path d="M 133.688517 98.029983 
L 132.067098 92.88566 
L 133.686896 92.88566 
L 133.686896 82.994454 
L 133.690138 82.994454 
L 133.690138 92.88566 
L 135.309936 92.88566 
z
" clip-path="url(#p7fc86b13e4)" style="fill: #1f77b4; stroke: #1f77b4; stroke-linejoin: miter"/>
   </g>
   <g id="patch_44">
    <path d="M 166.116901 98.029983 
L 164.495482 92.88566 
L 166.11528 92.88566 
L 166.11528 82.994454 
L 166.118522 82.994454 
L 166.118522 92.88566 
L 167.73832 92.88566 
z
" clip-path="url(#p7fc86b13e4)" style="fill: #1f77b4; stroke: #1f77b4; stroke-linejoin: miter"/>
   </g>
   <g id="patch_45">
    <path d="M 198.545285 98.029983 
L 196.923866 92.88566 
L 198.543664 92.88566 
L 198.543664 82.994454 
L 198.546906 82.994454 
L 198.546906 92.88566 
L 200.166704 92.88566 
z
" clip-path="url(#p7fc86b13e4)" style="fill: #1f77b4; stroke: #1f77b4; stroke-linejoin: miter"/>
   </g>
   <g id="patch_46">
    <path d="M 230.973669 98.029983 
L 229.35225 92.88566 
L 230.972048 92.88566 
L 230.972048 82.994454 
L 230.97529 82.994454 
L 230.97529 92.88566 
L 232.595088 92.88566 
z
" clip-path="url(#p7fc86b13e4)" style="fill: #1f77b4; stroke: #1f77b4; stroke-linejoin: miter"/>
   </g>
   <g id="patch_47">
    <path d="M 263.402053 98.029983 
L 261.780634 92.88566 
L 263.400431 92.88566 
L 263.400431 82.994454 
L 263.403674 82.994454 
L 263.403674 92.88566 
L 265.023472 92.88566 
z
" clip-path="url(#p7fc86b13e4)" style="fill: #1f77b4; stroke: #1f77b4; stroke-linejoin: miter"/>
   </g>
   <g id="patch_48">
    <path d="M 208.2738 62.417164 
L 198.545285 66.01819 
L 198.545285 62.419736 
L 166.116901 62.419736 
L 166.116901 62.414592 
L 198.545285 62.414592 
L 198.545285 58.816138 
z
" clip-path="url(#p7fc86b13e4)" style="fill: #ff7f0e; stroke: #ff7f0e; stroke-width: 4; stroke-linejoin: miter"/>
   </g>
   <g id="patch_49">
    <path d="M 36.403365 76.174707 
L 34.781946 71.030384 
L 36.401744 71.030384 
L 36.401744 62.417164 
L 36.404986 62.417164 
L 36.404986 71.030384 
L 38.024784 71.030384 
z
" clip-path="url(#p7fc86b13e4)" style="fill: #1f77b4; stroke: #1f77b4; stroke-linejoin: miter"/>
   </g>
   <g id="patch_50">
    <path d="M 68.831749 76.174707 
L 67.21033 71.030384 
L 68.830128 71.030384 
L 68.830128 62.417164 
L 68.83337 62.417164 
L 68.83337 71.030384 
L 70.453168 71.030384 
z
" clip-path="url(#p7fc86b13e4)" style="fill: #1f77b4; stroke: #1f77b4; stroke-linejoin: miter"/>
   </g>
   <g id="patch_51">
    <path d="M 101.260133 76.174707 
L 99.638714 71.030384 
L 101.258512 71.030384 
L 101.258512 62.417164 
L 101.261754 62.417164 
L 101.261754 71.030384 
L 102.881552 71.030384 
z
" clip-path="url(#p7fc86b13e4)" style="fill: #1f77b4; stroke: #1f77b4; stroke-linejoin: miter"/>
   </g>
   <g id="patch_52">
    <path d="M 133.688517 76.174707 
L 132.067098 71.030384 
L 133.686896 71.030384 
L 133.686896 62.417164 
L 133.690138 62.417164 
L 133.690138 71.030384 
L 135.309936 71.030384 
z
" clip-path="url(#p7fc86b13e4)" style="fill: #1f77b4; stroke: #1f77b4; stroke-linejoin: miter"/>
   </g>
   <g id="patch_53">
    <path d="M 166.116901 76.174707 
L 164.495482 71.030384 
L 166.11528 71.030384 
L 166.11528 62.417164 
L 166.118522 62.417164 
L 166.118522 71.030384 
L 167.73832 71.030384 
z
" clip-path="url(#p7fc86b13e4)" style="fill: #1f77b4; stroke: #1f77b4; stroke-linejoin: miter"/>
   </g>
   <g id="patch_54">
    <path d="M 198.545285 76.174707 
L 196.923866 71.030384 
L 198.543664 71.030384 
L 198.543664 62.417164 
L 198.546906 62.417164 
L 198.546906 71.030384 
L 200.166704 71.030384 
z
" clip-path="url(#p7fc86b13e4)" style="fill: #1f77b4; stroke: #1f77b4; stroke-linejoin: miter"/>
   </g>
   <g id="patch_55">
    <path d="M 230.973669 76.174707 
L 229.35225 71.030384 
L 230.972048 71.030384 
L 230.972048 62.417164 
L 230.97529 62.417164 
L 230.97529 71.030384 
L 232.595088 71.030384 
z
" clip-path="url(#p7fc86b13e4)" style="fill: #1f77b4; stroke: #1f77b4; stroke-linejoin: miter"/>
   </g>
   <g id="patch_56">
    <path d="M 263.402053 76.174707 
L 261.780634 71.030384 
L 263.400431 71.030384 
L 263.400431 62.417164 
L 263.403674 62.417164 
L 263.403674 71.030384 
L 265.023472 71.030384 
z
" clip-path="url(#p7fc86b13e4)" style="fill: #1f77b4; stroke: #1f77b4; stroke-linejoin: miter"/>
   </g>
   <g id="patch_57">
    <path d="M 228.315644 41.839874 
L 218.587128 45.4409 
L 218.587128 41.842447 
L 166.116901 41.842447 
L 166.116901 41.837302 
L 218.587128 41.837302 
L 218.587128 38.238849 
z
" clip-path="url(#p7fc86b13e4)" style="fill: #ff7f0e; stroke: #ff7f0e; stroke-width: 4; stroke-linejoin: miter"/>
   </g>
   <g id="patch_58">
    <path d="M 36.403365 52.830127 
L 34.781946 47.685804 
L 36.401744 47.685804 
L 36.401744 41.839874 
L 36.404986 41.839874 
L 36.404986 47.685804 
L 38.024784 47.685804 
z
" clip-path="url(#p7fc86b13e4)" style="fill: #1f77b4; stroke: #1f77b4; stroke-linejoin: miter"/>
   </g>
   <g id="patch_59">
    <path d="M 68.831749 52.830127 
L 67.21033 47.685804 
L 68.830128 47.685804 
L 68.830128 41.839874 
L 68.83337 41.839874 
L 68.83337 47.685804 
L 70.453168 47.685804 
z
" clip-path="url(#p7fc86b13e4)" style="fill: #1f77b4; stroke: #1f77b4; stroke-linejoin: miter"/>
   </g>
   <g id="patch_60">
    <path d="M 101.260133 52.830127 
L 99.638714 47.685804 
L 101.258512 47.685804 
L 101.258512 41.839874 
L 101.261754 41.839874 
L 101.261754 47.685804 
L 102.881552 47.685804 
z
" clip-path="url(#p7fc86b13e4)" style="fill: #1f77b4; stroke: #1f77b4; stroke-linejoin: miter"/>
   </g>
   <g id="patch_61">
    <path d="M 133.688517 52.830127 
L 132.067098 47.685804 
L 133.686896 47.685804 
L 133.686896 41.839874 
L 133.690138 41.839874 
L 133.690138 47.685804 
L 135.309936 47.685804 
z
" clip-path="url(#p7fc86b13e4)" style="fill: #1f77b4; stroke: #1f77b4; stroke-linejoin: miter"/>
   </g>
   <g id="patch_62">
    <path d="M 166.116901 52.830127 
L 164.495482 47.685804 
L 166.11528 47.685804 
L 166.11528 41.839874 
L 166.118522 41.839874 
L 166.118522 47.685804 
L 167.73832 47.685804 
z
" clip-path="url(#p7fc86b13e4)" style="fill: #1f77b4; stroke: #1f77b4; stroke-linejoin: miter"/>
   </g>
   <g id="patch_63">
    <path d="M 198.545285 52.830127 
L 196.923866 47.685804 
L 198.543664 47.685804 
L 198.543664 41.839874 
L 198.546906 41.839874 
L 198.546906 47.685804 
L 200.166704 47.685804 
z
" clip-path="url(#p7fc86b13e4)" style="fill: #1f77b4; stroke: #1f77b4; stroke-linejoin: miter"/>
   </g>
   <g id="patch_64">
    <path d="M 230.973669 52.830127 
L 229.35225 47.685804 
L 230.972048 47.685804 
L 230.972048 41.839874 
L 230.97529 41.839874 
L 230.97529 47.685804 
L 232.595088 47.685804 
z
" clip-path="url(#p7fc86b13e4)" style="fill: #1f77b4; stroke: #1f77b4; stroke-linejoin: miter"/>
   </g>
   <g id="patch_65">
    <path d="M 263.402053 52.830127 
L 261.780634 47.685804 
L 263.400431 47.685804 
L 263.400431 41.839874 
L 263.403674 41.839874 
L 263.403674 47.685804 
L 265.023472 47.685804 
z
" clip-path="url(#p7fc86b13e4)" style="fill: #1f77b4; stroke: #1f77b4; stroke-linejoin: miter"/>
   </g>
   <g id="patch_66">
    <path d="M 239.284908 21.262585 
L 229.556393 24.86361 
L 229.556393 21.265157 
L 166.116901 21.265157 
L 166.116901 21.260012 
L 229.556393 21.260012 
L 229.556393 17.661559 
z
" clip-path="url(#p7fc86b13e4)" style="fill: #ff7f0e; stroke: #ff7f0e; stroke-width: 4; stroke-linejoin: miter"/>
   </g>
   <g id="patch_67">
    <path d="M 36.403365 28.474732 
L 34.781946 23.33041 
L 36.401744 23.33041 
L 36.401744 21.262585 
L 36.404986 21.262585 
L 36.404986 23.33041 
L 38.024784 23.33041 
z
" clip-path="url(#p7fc86b13e4)" style="fill: #1f77b4; stroke: #1f77b4; stroke-linejoin: miter"/>
   </g>
   <g id="patch_68">
    <path d="M 68.831749 28.474732 
L 67.21033 23.33041 
L 68.830128 23.33041 
L 68.830128 21.262585 
L 68.83337 21.262585 
L 68.83337 23.33041 
L 70.453168 23.33041 
z
" clip-path="url(#p7fc86b13e4)" style="fill: #1f77b4; stroke: #1f77b4; stroke-linejoin: miter"/>
   </g>
   <g id="patch_69">
    <path d="M 101.260133 28.474732 
L 99.638714 23.33041 
L 101.258512 23.33041 
L 101.258512 21.262585 
L 101.261754 21.262585 
L 101.261754 23.33041 
L 102.881552 23.33041 
z
" clip-path="url(#p7fc86b13e4)" style="fill: #1f77b4; stroke: #1f77b4; stroke-linejoin: miter"/>
   </g>
   <g id="patch_70">
    <path d="M 133.688517 28.474732 
L 132.067098 23.33041 
L 133.686896 23.33041 
L 133.686896 21.262585 
L 133.690138 21.262585 
L 133.690138 23.33041 
L 135.309936 23.33041 
z
" clip-path="url(#p7fc86b13e4)" style="fill: #1f77b4; stroke: #1f77b4; stroke-linejoin: miter"/>
   </g>
   <g id="patch_71">
    <path d="M 166.116901 28.474732 
L 164.495482 23.33041 
L 166.11528 23.33041 
L 166.11528 21.262585 
L 166.118522 21.262585 
L 166.118522 23.33041 
L 167.73832 23.33041 
z
" clip-path="url(#p7fc86b13e4)" style="fill: #1f77b4; stroke: #1f77b4; stroke-linejoin: miter"/>
   </g>
   <g id="patch_72">
    <path d="M 198.545285 28.474732 
L 196.923866 23.33041 
L 198.543664 23.33041 
L 198.543664 21.262585 
L 198.546906 21.262585 
L 198.546906 23.33041 
L 200.166704 23.33041 
z
" clip-path="url(#p7fc86b13e4)" style="fill: #1f77b4; stroke: #1f77b4; stroke-linejoin: miter"/>
   </g>
   <g id="patch_73">
    <path d="M 230.973669 28.474732 
L 229.35225 23.33041 
L 230.972048 23.33041 
L 230.972048 21.262585 
L 230.97529 21.262585 
L 230.97529 23.33041 
L 232.595088 23.33041 
z
" clip-path="url(#p7fc86b13e4)" style="fill: #1f77b4; stroke: #1f77b4; stroke-linejoin: miter"/>
   </g>
   <g id="patch_74">
    <path d="M 263.402053 28.474732 
L 261.780634 23.33041 
L 263.400431 23.33041 
L 263.400431 21.262585 
L 263.403674 21.262585 
L 263.403674 23.33041 
L 265.023472 23.33041 
z
" clip-path="url(#p7fc86b13e4)" style="fill: #1f77b4; stroke: #1f77b4; stroke-linejoin: miter"/>
   </g>
   <g id="matplotlib.axis_1">
    <g id="xtick_1">
     <g id="line2d_1">
      <defs>
       <path id="m9c508027ab" d="M 0 0 
L 0 3.5 
" style="stroke: #000000; stroke-width: 0.8"/>
      </defs>
      <g>
       <use xlink:href="#m9c508027ab" x="36.403365" y="178.421635" style="stroke: #000000; stroke-width: 0.8"/>
      </g>
     </g>
     <g id="text_1">
      <!-- 0 -->
      <g transform="translate(33.222115 193.020072) scale(0.1 -0.1)">
       <defs>
        <path id="DejaVuSans-30" d="M 2034 4250 
Q 1547 4250 1301 3770 
Q 1056 3291 1056 2328 
Q 1056 1369 1301 889 
Q 1547 409 2034 409 
Q 2525 409 2770 889 
Q 3016 1369 3016 2328 
Q 3016 3291 2770 3770 
Q 2525 4250 2034 4250 
z
M 2034 4750 
Q 2819 4750 3233 4129 
Q 3647 3509 3647 2328 
Q 3647 1150 3233 529 
Q 2819 -91 2034 -91 
Q 1250 -91 836 529 
Q 422 1150 422 2328 
Q 422 3509 836 4129 
Q 1250 4750 2034 4750 
z
" transform="scale(0.015625)"/>
       </defs>
       <use xlink:href="#DejaVuSans-30"/>
      </g>
     </g>
    </g>
    <g id="xtick_2">
     <g id="line2d_2">
      <g>
       <use xlink:href="#m9c508027ab" x="68.831749" y="178.421635" style="stroke: #000000; stroke-width: 0.8"/>
      </g>
     </g>
     <g id="text_2">
      <!-- 10 -->
      <g transform="translate(62.469249 193.020072) scale(0.1 -0.1)">
       <defs>
        <path id="DejaVuSans-31" d="M 794 531 
L 1825 531 
L 1825 4091 
L 703 3866 
L 703 4441 
L 1819 4666 
L 2450 4666 
L 2450 531 
L 3481 531 
L 3481 0 
L 794 0 
L 794 531 
z
" transform="scale(0.015625)"/>
       </defs>
       <use xlink:href="#DejaVuSans-31"/>
       <use xlink:href="#DejaVuSans-30" transform="translate(63.623047 0)"/>
      </g>
     </g>
    </g>
    <g id="xtick_3">
     <g id="line2d_3">
      <g>
       <use xlink:href="#m9c508027ab" x="101.260133" y="178.421635" style="stroke: #000000; stroke-width: 0.8"/>
      </g>
     </g>
     <g id="text_3">
      <!-- 20 -->
      <g transform="translate(94.897633 193.020072) scale(0.1 -0.1)">
       <defs>
        <path id="DejaVuSans-32" d="M 1228 531 
L 3431 531 
L 3431 0 
L 469 0 
L 469 531 
Q 828 903 1448 1529 
Q 2069 2156 2228 2338 
Q 2531 2678 2651 2914 
Q 2772 3150 2772 3378 
Q 2772 3750 2511 3984 
Q 2250 4219 1831 4219 
Q 1534 4219 1204 4116 
Q 875 4013 500 3803 
L 500 4441 
Q 881 4594 1212 4672 
Q 1544 4750 1819 4750 
Q 2544 4750 2975 4387 
Q 3406 4025 3406 3419 
Q 3406 3131 3298 2873 
Q 3191 2616 2906 2266 
Q 2828 2175 2409 1742 
Q 1991 1309 1228 531 
z
" transform="scale(0.015625)"/>
       </defs>
       <use xlink:href="#DejaVuSans-32"/>
       <use xlink:href="#DejaVuSans-30" transform="translate(63.623047 0)"/>
      </g>
     </g>
    </g>
    <g id="xtick_4">
     <g id="line2d_4">
      <g>
       <use xlink:href="#m9c508027ab" x="133.688517" y="178.421635" style="stroke: #000000; stroke-width: 0.8"/>
      </g>
     </g>
     <g id="text_4">
      <!-- 30 -->
      <g transform="translate(127.326017 193.020072) scale(0.1 -0.1)">
       <defs>
        <path id="DejaVuSans-33" d="M 2597 2516 
Q 3050 2419 3304 2112 
Q 3559 1806 3559 1356 
Q 3559 666 3084 287 
Q 2609 -91 1734 -91 
Q 1441 -91 1130 -33 
Q 819 25 488 141 
L 488 750 
Q 750 597 1062 519 
Q 1375 441 1716 441 
Q 2309 441 2620 675 
Q 2931 909 2931 1356 
Q 2931 1769 2642 2001 
Q 2353 2234 1838 2234 
L 1294 2234 
L 1294 2753 
L 1863 2753 
Q 2328 2753 2575 2939 
Q 2822 3125 2822 3475 
Q 2822 3834 2567 4026 
Q 2313 4219 1838 4219 
Q 1578 4219 1281 4162 
Q 984 4106 628 3988 
L 628 4550 
Q 988 4650 1302 4700 
Q 1616 4750 1894 4750 
Q 2613 4750 3031 4423 
Q 3450 4097 3450 3541 
Q 3450 3153 3228 2886 
Q 3006 2619 2597 2516 
z
" transform="scale(0.015625)"/>
       </defs>
       <use xlink:href="#DejaVuSans-33"/>
       <use xlink:href="#DejaVuSans-30" transform="translate(63.623047 0)"/>
      </g>
     </g>
    </g>
    <g id="xtick_5">
     <g id="line2d_5">
      <g>
       <use xlink:href="#m9c508027ab" x="166.116901" y="178.421635" style="stroke: #000000; stroke-width: 0.8"/>
      </g>
     </g>
     <g id="text_5">
      <!-- 40 -->
      <g transform="translate(159.754401 193.020072) scale(0.1 -0.1)">
       <defs>
        <path id="DejaVuSans-34" d="M 2419 4116 
L 825 1625 
L 2419 1625 
L 2419 4116 
z
M 2253 4666 
L 3047 4666 
L 3047 1625 
L 3713 1625 
L 3713 1100 
L 3047 1100 
L 3047 0 
L 2419 0 
L 2419 1100 
L 313 1100 
L 313 1709 
L 2253 4666 
z
" transform="scale(0.015625)"/>
       </defs>
       <use xlink:href="#DejaVuSans-34"/>
       <use xlink:href="#DejaVuSans-30" transform="translate(63.623047 0)"/>
      </g>
     </g>
    </g>
    <g id="xtick_6">
     <g id="line2d_6">
      <g>
       <use xlink:href="#m9c508027ab" x="198.545285" y="178.421635" style="stroke: #000000; stroke-width: 0.8"/>
      </g>
     </g>
     <g id="text_6">
      <!-- 50 -->
      <g transform="translate(192.182785 193.020072) scale(0.1 -0.1)">
       <defs>
        <path id="DejaVuSans-35" d="M 691 4666 
L 3169 4666 
L 3169 4134 
L 1269 4134 
L 1269 2991 
Q 1406 3038 1543 3061 
Q 1681 3084 1819 3084 
Q 2600 3084 3056 2656 
Q 3513 2228 3513 1497 
Q 3513 744 3044 326 
Q 2575 -91 1722 -91 
Q 1428 -91 1123 -41 
Q 819 9 494 109 
L 494 744 
Q 775 591 1075 516 
Q 1375 441 1709 441 
Q 2250 441 2565 725 
Q 2881 1009 2881 1497 
Q 2881 1984 2565 2268 
Q 2250 2553 1709 2553 
Q 1456 2553 1204 2497 
Q 953 2441 691 2322 
L 691 4666 
z
" transform="scale(0.015625)"/>
       </defs>
       <use xlink:href="#DejaVuSans-35"/>
       <use xlink:href="#DejaVuSans-30" transform="translate(63.623047 0)"/>
      </g>
     </g>
    </g>
    <g id="xtick_7">
     <g id="line2d_7">
      <g>
       <use xlink:href="#m9c508027ab" x="230.973669" y="178.421635" style="stroke: #000000; stroke-width: 0.8"/>
      </g>
     </g>
     <g id="text_7">
      <!-- 60 -->
      <g transform="translate(224.611169 193.020072) scale(0.1 -0.1)">
       <defs>
        <path id="DejaVuSans-36" d="M 2113 2584 
Q 1688 2584 1439 2293 
Q 1191 2003 1191 1497 
Q 1191 994 1439 701 
Q 1688 409 2113 409 
Q 2538 409 2786 701 
Q 3034 994 3034 1497 
Q 3034 2003 2786 2293 
Q 2538 2584 2113 2584 
z
M 3366 4563 
L 3366 3988 
Q 3128 4100 2886 4159 
Q 2644 4219 2406 4219 
Q 1781 4219 1451 3797 
Q 1122 3375 1075 2522 
Q 1259 2794 1537 2939 
Q 1816 3084 2150 3084 
Q 2853 3084 3261 2657 
Q 3669 2231 3669 1497 
Q 3669 778 3244 343 
Q 2819 -91 2113 -91 
Q 1303 -91 875 529 
Q 447 1150 447 2328 
Q 447 3434 972 4092 
Q 1497 4750 2381 4750 
Q 2619 4750 2861 4703 
Q 3103 4656 3366 4563 
z
" transform="scale(0.015625)"/>
       </defs>
       <use xlink:href="#DejaVuSans-36"/>
       <use xlink:href="#DejaVuSans-30" transform="translate(63.623047 0)"/>
      </g>
     </g>
    </g>
    <g id="xtick_8">
     <g id="line2d_8">
      <g>
       <use xlink:href="#m9c508027ab" x="263.402053" y="178.421635" style="stroke: #000000; stroke-width: 0.8"/>
      </g>
     </g>
     <g id="text_8">
      <!-- 70 -->
      <g transform="translate(257.039553 193.020072) scale(0.1 -0.1)">
       <defs>
        <path id="DejaVuSans-37" d="M 525 4666 
L 3525 4666 
L 3525 4397 
L 1831 0 
L 1172 0 
L 2766 4134 
L 525 4134 
L 525 4666 
z
" transform="scale(0.015625)"/>
       </defs>
       <use xlink:href="#DejaVuSans-37"/>
       <use xlink:href="#DejaVuSans-30" transform="translate(63.623047 0)"/>
      </g>
     </g>
    </g>
    <g id="text_9">
     <!-- Longitude [E] -->
     <g transform="translate(130.975951 206.698197) scale(0.1 -0.1)">
      <defs>
       <path id="DejaVuSans-4c" d="M 628 4666 
L 1259 4666 
L 1259 531 
L 3531 531 
L 3531 0 
L 628 0 
L 628 4666 
z
" transform="scale(0.015625)"/>
       <path id="DejaVuSans-6f" d="M 1959 3097 
Q 1497 3097 1228 2736 
Q 959 2375 959 1747 
Q 959 1119 1226 758 
Q 1494 397 1959 397 
Q 2419 397 2687 759 
Q 2956 1122 2956 1747 
Q 2956 2369 2687 2733 
Q 2419 3097 1959 3097 
z
M 1959 3584 
Q 2709 3584 3137 3096 
Q 3566 2609 3566 1747 
Q 3566 888 3137 398 
Q 2709 -91 1959 -91 
Q 1206 -91 779 398 
Q 353 888 353 1747 
Q 353 2609 779 3096 
Q 1206 3584 1959 3584 
z
" transform="scale(0.015625)"/>
       <path id="DejaVuSans-6e" d="M 3513 2113 
L 3513 0 
L 2938 0 
L 2938 2094 
Q 2938 2591 2744 2837 
Q 2550 3084 2163 3084 
Q 1697 3084 1428 2787 
Q 1159 2491 1159 1978 
L 1159 0 
L 581 0 
L 581 3500 
L 1159 3500 
L 1159 2956 
Q 1366 3272 1645 3428 
Q 1925 3584 2291 3584 
Q 2894 3584 3203 3211 
Q 3513 2838 3513 2113 
z
" transform="scale(0.015625)"/>
       <path id="DejaVuSans-67" d="M 2906 1791 
Q 2906 2416 2648 2759 
Q 2391 3103 1925 3103 
Q 1463 3103 1205 2759 
Q 947 2416 947 1791 
Q 947 1169 1205 825 
Q 1463 481 1925 481 
Q 2391 481 2648 825 
Q 2906 1169 2906 1791 
z
M 3481 434 
Q 3481 -459 3084 -895 
Q 2688 -1331 1869 -1331 
Q 1566 -1331 1297 -1286 
Q 1028 -1241 775 -1147 
L 775 -588 
Q 1028 -725 1275 -790 
Q 1522 -856 1778 -856 
Q 2344 -856 2625 -561 
Q 2906 -266 2906 331 
L 2906 616 
Q 2728 306 2450 153 
Q 2172 0 1784 0 
Q 1141 0 747 490 
Q 353 981 353 1791 
Q 353 2603 747 3093 
Q 1141 3584 1784 3584 
Q 2172 3584 2450 3431 
Q 2728 3278 2906 2969 
L 2906 3500 
L 3481 3500 
L 3481 434 
z
" transform="scale(0.015625)"/>
       <path id="DejaVuSans-69" d="M 603 3500 
L 1178 3500 
L 1178 0 
L 603 0 
L 603 3500 
z
M 603 4863 
L 1178 4863 
L 1178 4134 
L 603 4134 
L 603 4863 
z
" transform="scale(0.015625)"/>
       <path id="DejaVuSans-74" d="M 1172 4494 
L 1172 3500 
L 2356 3500 
L 2356 3053 
L 1172 3053 
L 1172 1153 
Q 1172 725 1289 603 
Q 1406 481 1766 481 
L 2356 481 
L 2356 0 
L 1766 0 
Q 1100 0 847 248 
Q 594 497 594 1153 
L 594 3053 
L 172 3053 
L 172 3500 
L 594 3500 
L 594 4494 
L 1172 4494 
z
" transform="scale(0.015625)"/>
       <path id="DejaVuSans-75" d="M 544 1381 
L 544 3500 
L 1119 3500 
L 1119 1403 
Q 1119 906 1312 657 
Q 1506 409 1894 409 
Q 2359 409 2629 706 
Q 2900 1003 2900 1516 
L 2900 3500 
L 3475 3500 
L 3475 0 
L 2900 0 
L 2900 538 
Q 2691 219 2414 64 
Q 2138 -91 1772 -91 
Q 1169 -91 856 284 
Q 544 659 544 1381 
z
M 1991 3584 
L 1991 3584 
z
" transform="scale(0.015625)"/>
       <path id="DejaVuSans-64" d="M 2906 2969 
L 2906 4863 
L 3481 4863 
L 3481 0 
L 2906 0 
L 2906 525 
Q 2725 213 2448 61 
Q 2172 -91 1784 -91 
Q 1150 -91 751 415 
Q 353 922 353 1747 
Q 353 2572 751 3078 
Q 1150 3584 1784 3584 
Q 2172 3584 2448 3432 
Q 2725 3281 2906 2969 
z
M 947 1747 
Q 947 1113 1208 752 
Q 1469 391 1925 391 
Q 2381 391 2643 752 
Q 2906 1113 2906 1747 
Q 2906 2381 2643 2742 
Q 2381 3103 1925 3103 
Q 1469 3103 1208 2742 
Q 947 2381 947 1747 
z
" transform="scale(0.015625)"/>
       <path id="DejaVuSans-65" d="M 3597 1894 
L 3597 1613 
L 953 1613 
Q 991 1019 1311 708 
Q 1631 397 2203 397 
Q 2534 397 2845 478 
Q 3156 559 3463 722 
L 3463 178 
Q 3153 47 2828 -22 
Q 2503 -91 2169 -91 
Q 1331 -91 842 396 
Q 353 884 353 1716 
Q 353 2575 817 3079 
Q 1281 3584 2069 3584 
Q 2775 3584 3186 3129 
Q 3597 2675 3597 1894 
z
M 3022 2063 
Q 3016 2534 2758 2815 
Q 2500 3097 2075 3097 
Q 1594 3097 1305 2825 
Q 1016 2553 972 2059 
L 3022 2063 
z
" transform="scale(0.015625)"/>
       <path id="DejaVuSans-20" transform="scale(0.015625)"/>
       <path id="DejaVuSans-5b" d="M 550 4863 
L 1875 4863 
L 1875 4416 
L 1125 4416 
L 1125 -397 
L 1875 -397 
L 1875 -844 
L 550 -844 
L 550 4863 
z
" transform="scale(0.015625)"/>
       <path id="DejaVuSans-45" d="M 628 4666 
L 3578 4666 
L 3578 4134 
L 1259 4134 
L 1259 2753 
L 3481 2753 
L 3481 2222 
L 1259 2222 
L 1259 531 
L 3634 531 
L 3634 0 
L 628 0 
L 628 4666 
z
" transform="scale(0.015625)"/>
       <path id="DejaVuSans-5d" d="M 1947 4863 
L 1947 -844 
L 622 -844 
L 622 -397 
L 1369 -397 
L 1369 4416 
L 622 4416 
L 622 4863 
L 1947 4863 
z
" transform="scale(0.015625)"/>
      </defs>
      <use xlink:href="#DejaVuSans-4c"/>
      <use xlink:href="#DejaVuSans-6f" transform="translate(53.962891 0)"/>
      <use xlink:href="#DejaVuSans-6e" transform="translate(115.144531 0)"/>
      <use xlink:href="#DejaVuSans-67" transform="translate(178.523438 0)"/>
      <use xlink:href="#DejaVuSans-69" transform="translate(242 0)"/>
      <use xlink:href="#DejaVuSans-74" transform="translate(269.783203 0)"/>
      <use xlink:href="#DejaVuSans-75" transform="translate(308.992188 0)"/>
      <use xlink:href="#DejaVuSans-64" transform="translate(372.371094 0)"/>
      <use xlink:href="#DejaVuSans-65" transform="translate(435.847656 0)"/>
      <use xlink:href="#DejaVuSans-20" transform="translate(497.371094 0)"/>
      <use xlink:href="#DejaVuSans-5b" transform="translate(529.158203 0)"/>
      <use xlink:href="#DejaVuSans-45" transform="translate(568.171875 0)"/>
      <use xlink:href="#DejaVuSans-5d" transform="translate(631.355469 0)"/>
     </g>
    </g>
   </g>
   <g id="matplotlib.axis_2">
    <g id="ytick_1">
     <g id="line2d_9">
      <defs>
       <path id="m303085b4e6" d="M 0 0 
L -3.5 0 
" style="stroke: #000000; stroke-width: 0.8"/>
      </defs>
      <g>
       <use xlink:href="#m303085b4e6" x="36.403365" y="165.303613" style="stroke: #000000; stroke-width: 0.8"/>
      </g>
     </g>
     <g id="text_10">
      <!-- 15 -->
      <g transform="translate(16.678365 169.102832) scale(0.1 -0.1)">
       <use xlink:href="#DejaVuSans-31"/>
       <use xlink:href="#DejaVuSans-35" transform="translate(63.623047 0)"/>
      </g>
     </g>
    </g>
    <g id="ytick_2">
     <g id="line2d_10">
      <g>
       <use xlink:href="#m303085b4e6" x="36.403365" y="139.582001" style="stroke: #000000; stroke-width: 0.8"/>
      </g>
     </g>
     <g id="text_11">
      <!-- 20 -->
      <g transform="translate(16.678365 143.381219) scale(0.1 -0.1)">
       <use xlink:href="#DejaVuSans-32"/>
       <use xlink:href="#DejaVuSans-30" transform="translate(63.623047 0)"/>
      </g>
     </g>
    </g>
    <g id="ytick_3">
     <g id="line2d_11">
      <g>
       <use xlink:href="#m303085b4e6" x="36.403365" y="113.860388" style="stroke: #000000; stroke-width: 0.8"/>
      </g>
     </g>
     <g id="text_12">
      <!-- 25 -->
      <g transform="translate(16.678365 117.659607) scale(0.1 -0.1)">
       <use xlink:href="#DejaVuSans-32"/>
       <use xlink:href="#DejaVuSans-35" transform="translate(63.623047 0)"/>
      </g>
     </g>
    </g>
    <g id="ytick_4">
     <g id="line2d_12">
      <g>
       <use xlink:href="#m303085b4e6" x="36.403365" y="88.138776" style="stroke: #000000; stroke-width: 0.8"/>
      </g>
     </g>
     <g id="text_13">
      <!-- 30 -->
      <g transform="translate(16.678365 91.937995) scale(0.1 -0.1)">
       <use xlink:href="#DejaVuSans-33"/>
       <use xlink:href="#DejaVuSans-30" transform="translate(63.623047 0)"/>
      </g>
     </g>
    </g>
    <g id="ytick_5">
     <g id="line2d_13">
      <g>
       <use xlink:href="#m303085b4e6" x="36.403365" y="62.417164" style="stroke: #000000; stroke-width: 0.8"/>
      </g>
     </g>
     <g id="text_14">
      <!-- 35 -->
      <g transform="translate(16.678365 66.216383) scale(0.1 -0.1)">
       <use xlink:href="#DejaVuSans-33"/>
       <use xlink:href="#DejaVuSans-35" transform="translate(63.623047 0)"/>
      </g>
     </g>
    </g>
    <g id="ytick_6">
     <g id="line2d_14">
      <g>
       <use xlink:href="#m303085b4e6" x="36.403365" y="36.695552" style="stroke: #000000; stroke-width: 0.8"/>
      </g>
     </g>
     <g id="text_15">
      <!-- 40 -->
      <g transform="translate(16.678365 40.494771) scale(0.1 -0.1)">
       <use xlink:href="#DejaVuSans-34"/>
       <use xlink:href="#DejaVuSans-30" transform="translate(63.623047 0)"/>
      </g>
     </g>
    </g>
    <g id="ytick_7">
     <g id="line2d_15">
      <g>
       <use xlink:href="#m303085b4e6" x="36.403365" y="10.97394" style="stroke: #000000; stroke-width: 0.8"/>
      </g>
     </g>
     <g id="text_16">
      <!-- 45 -->
      <g transform="translate(16.678365 14.773159) scale(0.1 -0.1)">
       <use xlink:href="#DejaVuSans-34"/>
       <use xlink:href="#DejaVuSans-35" transform="translate(63.623047 0)"/>
      </g>
     </g>
    </g>
    <g id="text_17">
     <!-- Latitude [N] -->
     <g transform="translate(10.598678 120.521094) rotate(-90) scale(0.1 -0.1)">
      <defs>
       <path id="DejaVuSans-61" d="M 2194 1759 
Q 1497 1759 1228 1600 
Q 959 1441 959 1056 
Q 959 750 1161 570 
Q 1363 391 1709 391 
Q 2188 391 2477 730 
Q 2766 1069 2766 1631 
L 2766 1759 
L 2194 1759 
z
M 3341 1997 
L 3341 0 
L 2766 0 
L 2766 531 
Q 2569 213 2275 61 
Q 1981 -91 1556 -91 
Q 1019 -91 701 211 
Q 384 513 384 1019 
Q 384 1609 779 1909 
Q 1175 2209 1959 2209 
L 2766 2209 
L 2766 2266 
Q 2766 2663 2505 2880 
Q 2244 3097 1772 3097 
Q 1472 3097 1187 3025 
Q 903 2953 641 2809 
L 641 3341 
Q 956 3463 1253 3523 
Q 1550 3584 1831 3584 
Q 2591 3584 2966 3190 
Q 3341 2797 3341 1997 
z
" transform="scale(0.015625)"/>
       <path id="DejaVuSans-4e" d="M 628 4666 
L 1478 4666 
L 3547 763 
L 3547 4666 
L 4159 4666 
L 4159 0 
L 3309 0 
L 1241 3903 
L 1241 0 
L 628 0 
L 628 4666 
z
" transform="scale(0.015625)"/>
      </defs>
      <use xlink:href="#DejaVuSans-4c"/>
      <use xlink:href="#DejaVuSans-61" transform="translate(55.712891 0)"/>
      <use xlink:href="#DejaVuSans-74" transform="translate(116.992188 0)"/>
      <use xlink:href="#DejaVuSans-69" transform="translate(156.201172 0)"/>
      <use xlink:href="#DejaVuSans-74" transform="translate(183.984375 0)"/>
      <use xlink:href="#DejaVuSans-75" transform="translate(223.193359 0)"/>
      <use xlink:href="#DejaVuSans-64" transform="translate(286.572266 0)"/>
      <use xlink:href="#DejaVuSans-65" transform="translate(350.048828 0)"/>
      <use xlink:href="#DejaVuSans-20" transform="translate(411.572266 0)"/>
      <use xlink:href="#DejaVuSans-5b" transform="translate(443.359375 0)"/>
      <use xlink:href="#DejaVuSans-4e" transform="translate(482.373047 0)"/>
      <use xlink:href="#DejaVuSans-5d" transform="translate(557.177734 0)"/>
     </g>
    </g>
   </g>
   <g id="line2d_16">
    <path d="M 36.403365 165.303613 
L 292.587599 165.303613 
" clip-path="url(#p7fc86b13e4)" style="fill: none; stroke: #000000; stroke-width: 1.5; stroke-linecap: square"/>
   </g>
   <g id="line2d_17">
    <path d="M 36.403365 10.97394 
L 292.587599 10.97394 
" clip-path="url(#p7fc86b13e4)" style="fill: none; stroke: #000000; stroke-width: 1.5; stroke-linecap: square"/>
   </g>
   <g id="patch_75">
    <path d="M 36.403365 178.421635 
L 36.403365 3.00024 
" style="fill: none; stroke: #000000; stroke-width: 0.8; stroke-linejoin: miter; stroke-linecap: square"/>
   </g>
   <g id="patch_76">
    <path d="M 292.587599 178.421635 
L 292.587599 3.00024 
" style="fill: none; stroke: #000000; stroke-width: 0.8; stroke-linejoin: miter; stroke-linecap: square"/>
   </g>
   <g id="patch_77">
    <path d="M 36.403365 178.421635 
L 292.587599 178.421635 
" style="fill: none; stroke: #000000; stroke-width: 0.8; stroke-linejoin: miter; stroke-linecap: square"/>
   </g>
   <g id="patch_78">
    <path d="M 36.403365 3.00024 
L 292.587599 3.00024 
" style="fill: none; stroke: #000000; stroke-width: 0.8; stroke-linejoin: miter; stroke-linecap: square"/>
   </g>
  </g>
  <g id="axes_2">
   <g id="patch_79">
    <path d="M 302.088079 178.421635 
L 430.180195 178.421635 
L 430.180195 3.00024 
L 302.088079 3.00024 
z
" style="fill: #ffffff"/>
   </g>
   <g id="matplotlib.axis_3">
    <g id="xtick_9">
     <g id="line2d_18">
      <g>
       <use xlink:href="#m9c508027ab" x="307.910447" y="178.421635" style="stroke: #000000; stroke-width: 0.8"/>
      </g>
     </g>
     <g id="text_18">
      <!-- −1 -->
      <g transform="translate(300.539354 193.020072) scale(0.1 -0.1)">
       <defs>
        <path id="DejaVuSans-2212" d="M 678 2272 
L 4684 2272 
L 4684 1741 
L 678 1741 
L 678 2272 
z
" transform="scale(0.015625)"/>
       </defs>
       <use xlink:href="#DejaVuSans-2212"/>
       <use xlink:href="#DejaVuSans-31" transform="translate(83.789062 0)"/>
      </g>
     </g>
    </g>
    <g id="xtick_10">
     <g id="line2d_19">
      <g>
       <use xlink:href="#m9c508027ab" x="366.134137" y="178.421635" style="stroke: #000000; stroke-width: 0.8"/>
      </g>
     </g>
     <g id="text_19">
      <!-- 0 -->
      <g transform="translate(362.952887 193.020072) scale(0.1 -0.1)">
       <use xlink:href="#DejaVuSans-30"/>
      </g>
     </g>
    </g>
    <g id="xtick_11">
     <g id="line2d_20">
      <g>
       <use xlink:href="#m9c508027ab" x="424.357826" y="178.421635" style="stroke: #000000; stroke-width: 0.8"/>
      </g>
     </g>
     <g id="text_20">
      <!-- 1 -->
      <g transform="translate(421.176576 193.020072) scale(0.1 -0.1)">
       <use xlink:href="#DejaVuSans-31"/>
      </g>
     </g>
    </g>
    <g id="text_21">
     <!-- $\tau_x^W\ \mathrm{[N/m^2]}$ -->
     <g transform="translate(341.034137 208.19976) scale(0.1 -0.1)">
      <defs>
       <path id="DejaVuSans-Oblique-3c4" d="M 2103 638 
Q 2188 488 2525 488 
L 2800 488 
L 2706 0 
L 2363 0 
Q 1800 0 1600 300 
Q 1403 606 1534 1269 
L 1856 2925 
L 541 2925 
L 653 3500 
L 3881 3500 
L 3769 2925 
L 2444 2925 
L 2113 1234 
Q 2025 781 2103 638 
z
" transform="scale(0.015625)"/>
       <path id="DejaVuSans-Oblique-57" d="M 616 4666 
L 1228 4666 
L 1453 697 
L 3213 4666 
L 3916 4666 
L 4147 697 
L 5888 4666 
L 6528 4666 
L 4453 0 
L 3659 0 
L 3444 3891 
L 1697 0 
L 903 0 
L 616 4666 
z
" transform="scale(0.015625)"/>
       <path id="DejaVuSans-Oblique-78" d="M 3841 3500 
L 2234 1784 
L 3219 0 
L 2559 0 
L 1819 1388 
L 531 0 
L -166 0 
L 1556 1844 
L 641 3500 
L 1300 3500 
L 1972 2234 
L 3144 3500 
L 3841 3500 
z
" transform="scale(0.015625)"/>
       <path id="DejaVuSans-2f" d="M 1625 4666 
L 2156 4666 
L 531 -594 
L 0 -594 
L 1625 4666 
z
" transform="scale(0.015625)"/>
       <path id="DejaVuSans-6d" d="M 3328 2828 
Q 3544 3216 3844 3400 
Q 4144 3584 4550 3584 
Q 5097 3584 5394 3201 
Q 5691 2819 5691 2113 
L 5691 0 
L 5113 0 
L 5113 2094 
Q 5113 2597 4934 2840 
Q 4756 3084 4391 3084 
Q 3944 3084 3684 2787 
Q 3425 2491 3425 1978 
L 3425 0 
L 2847 0 
L 2847 2094 
Q 2847 2600 2669 2842 
Q 2491 3084 2119 3084 
Q 1678 3084 1418 2786 
Q 1159 2488 1159 1978 
L 1159 0 
L 581 0 
L 581 3500 
L 1159 3500 
L 1159 2956 
Q 1356 3278 1631 3431 
Q 1906 3584 2284 3584 
Q 2666 3584 2933 3390 
Q 3200 3197 3328 2828 
z
" transform="scale(0.015625)"/>
      </defs>
      <use xlink:href="#DejaVuSans-Oblique-3c4" transform="translate(0 0.765625)"/>
      <use xlink:href="#DejaVuSans-Oblique-57" transform="translate(64.671224 39.046875) scale(0.7)"/>
      <use xlink:href="#DejaVuSans-Oblique-78" transform="translate(60.205078 -26.578125) scale(0.7)"/>
      <use xlink:href="#DejaVuSans-5b" transform="translate(169.089845 0.765625)"/>
      <use xlink:href="#DejaVuSans-4e" transform="translate(208.103516 0.765625)"/>
      <use xlink:href="#DejaVuSans-2f" transform="translate(282.908204 0.765625)"/>
      <use xlink:href="#DejaVuSans-6d" transform="translate(316.59961 0.765625)"/>
      <use xlink:href="#DejaVuSans-32" transform="translate(414.968751 39.046875) scale(0.7)"/>
      <use xlink:href="#DejaVuSans-5d" transform="translate(462.239259 0.765625)"/>
     </g>
    </g>
   </g>
   <g id="matplotlib.axis_4">
    <g id="ytick_8">
     <g id="line2d_21">
      <g>
       <use xlink:href="#m303085b4e6" x="302.088079" y="165.303613" style="stroke: #000000; stroke-width: 0.8"/>
      </g>
     </g>
    </g>
    <g id="ytick_9">
     <g id="line2d_22">
      <g>
       <use xlink:href="#m303085b4e6" x="302.088079" y="139.582001" style="stroke: #000000; stroke-width: 0.8"/>
      </g>
     </g>
    </g>
    <g id="ytick_10">
     <g id="line2d_23">
      <g>
       <use xlink:href="#m303085b4e6" x="302.088079" y="113.860388" style="stroke: #000000; stroke-width: 0.8"/>
      </g>
     </g>
    </g>
    <g id="ytick_11">
     <g id="line2d_24">
      <g>
       <use xlink:href="#m303085b4e6" x="302.088079" y="88.138776" style="stroke: #000000; stroke-width: 0.8"/>
      </g>
     </g>
    </g>
    <g id="ytick_12">
     <g id="line2d_25">
      <g>
       <use xlink:href="#m303085b4e6" x="302.088079" y="62.417164" style="stroke: #000000; stroke-width: 0.8"/>
      </g>
     </g>
    </g>
    <g id="ytick_13">
     <g id="line2d_26">
      <g>
       <use xlink:href="#m303085b4e6" x="302.088079" y="36.695552" style="stroke: #000000; stroke-width: 0.8"/>
      </g>
     </g>
    </g>
    <g id="ytick_14">
     <g id="line2d_27">
      <g>
       <use xlink:href="#m303085b4e6" x="302.088079" y="10.97394" style="stroke: #000000; stroke-width: 0.8"/>
      </g>
     </g>
    </g>
   </g>
   <g id="line2d_28">
    <path d="M 307.910447 165.303613 
L 308.229403 160.15929 
L 309.182775 155.014968 
L 310.760118 149.870645 
L 312.94415 144.726323 
L 315.710943 139.582001 
L 319.030183 134.437678 
L 322.865503 129.293356 
L 327.174884 124.149033 
L 331.911111 119.004711 
L 337.022292 113.860388 
L 342.452429 108.716066 
L 348.142027 103.571744 
L 354.028751 98.427421 
L 360.048104 93.283099 
L 366.134137 88.138776 
L 372.22017 82.994454 
L 378.239523 77.850131 
L 384.126246 72.705809 
L 389.815845 67.561487 
L 395.245982 62.417164 
L 400.357163 57.272842 
L 405.093389 52.128519 
L 409.40277 46.984197 
L 413.238091 41.839874 
L 416.557331 36.695552 
L 419.324124 31.55123 
L 421.508156 26.406907 
L 423.085499 21.262585 
L 424.038871 16.118262 
L 424.357826 10.97394 
" clip-path="url(#p605963bada)" style="fill: none; stroke: #ff7f0e; stroke-width: 4; stroke-linecap: square"/>
   </g>
   <g id="patch_80">
    <path d="M 302.088079 178.421635 
L 302.088079 3.00024 
" style="fill: none; stroke: #000000; stroke-width: 0.8; stroke-linejoin: miter; stroke-linecap: square"/>
   </g>
   <g id="patch_81">
    <path d="M 430.180195 178.421635 
L 430.180195 3.00024 
" style="fill: none; stroke: #000000; stroke-width: 0.8; stroke-linejoin: miter; stroke-linecap: square"/>
   </g>
   <g id="patch_82">
    <path d="M 302.088079 178.421635 
L 430.180195 178.421635 
" style="fill: none; stroke: #000000; stroke-width: 0.8; stroke-linejoin: miter; stroke-linecap: square"/>
   </g>
   <g id="patch_83">
    <path d="M 302.088079 3.00024 
L 430.180195 3.00024 
" style="fill: none; stroke: #000000; stroke-width: 0.8; stroke-linejoin: miter; stroke-linecap: square"/>
   </g>
  </g>
  <g id="axes_3">
   <g id="patch_84">
    <path d="M 444.907643 178.421635 
L 572.99976 178.421635 
L 572.99976 3.00024 
L 444.907643 3.00024 
z
" style="fill: #ffffff"/>
   </g>
   <g id="matplotlib.axis_5">
    <g id="xtick_12">
     <g id="line2d_29">
      <g>
       <use xlink:href="#m9c508027ab" x="446.714585" y="178.421635" style="stroke: #000000; stroke-width: 0.8"/>
      </g>
     </g>
     <g id="text_22">
      <!-- −60 -->
      <g transform="translate(436.162242 193.020072) scale(0.1 -0.1)">
       <use xlink:href="#DejaVuSans-2212"/>
       <use xlink:href="#DejaVuSans-36" transform="translate(83.789062 0)"/>
       <use xlink:href="#DejaVuSans-30" transform="translate(147.412109 0)"/>
      </g>
     </g>
    </g>
    <g id="xtick_13">
     <g id="line2d_30">
      <g>
       <use xlink:href="#m9c508027ab" x="486.868854" y="178.421635" style="stroke: #000000; stroke-width: 0.8"/>
      </g>
     </g>
     <g id="text_23">
      <!-- −40 -->
      <g transform="translate(476.31651 193.020072) scale(0.1 -0.1)">
       <use xlink:href="#DejaVuSans-2212"/>
       <use xlink:href="#DejaVuSans-34" transform="translate(83.789062 0)"/>
       <use xlink:href="#DejaVuSans-30" transform="translate(147.412109 0)"/>
      </g>
     </g>
    </g>
    <g id="xtick_14">
     <g id="line2d_31">
      <g>
       <use xlink:href="#m9c508027ab" x="527.023122" y="178.421635" style="stroke: #000000; stroke-width: 0.8"/>
      </g>
     </g>
     <g id="text_24">
      <!-- −20 -->
      <g transform="translate(516.470779 193.020072) scale(0.1 -0.1)">
       <use xlink:href="#DejaVuSans-2212"/>
       <use xlink:href="#DejaVuSans-32" transform="translate(83.789062 0)"/>
       <use xlink:href="#DejaVuSans-30" transform="translate(147.412109 0)"/>
      </g>
     </g>
    </g>
    <g id="xtick_15">
     <g id="line2d_32">
      <g>
       <use xlink:href="#m9c508027ab" x="567.177391" y="178.421635" style="stroke: #000000; stroke-width: 0.8"/>
      </g>
     </g>
     <g id="text_25">
      <!-- 0 -->
      <g transform="translate(563.996141 193.020072) scale(0.1 -0.1)">
       <use xlink:href="#DejaVuSans-30"/>
      </g>
     </g>
    </g>
    <g id="text_26">
     <!-- $\int vh\ \mathrm{d}x\ \ \mathrm{[Sv]}$ -->
     <g transform="translate(478.103702 209.89976) scale(0.1 -0.1)">
      <defs>
       <path id="DejaVuSansDisplay-222b" d="M 2134 5525 
Q 2172 6263 2528 6556 
Q 2884 6850 3218 6850 
Q 3553 6850 3833 6575 
Q 4113 6300 4200 5678 
L 3544 5613 
Q 3469 6188 3219 6188 
Q 2906 6188 2869 5413 
L 2581 -597 
Q 2547 -1334 2187 -1628 
Q 1828 -1922 1497 -1922 
Q 1163 -1922 883 -1647 
Q 603 -1372 516 -750 
L 1172 -684 
Q 1247 -1259 1497 -1259 
Q 1809 -1259 1847 -488 
L 2134 5525 
z
" transform="scale(0.015625)"/>
       <path id="DejaVuSans-Oblique-76" d="M 459 3500 
L 1069 3500 
L 1581 525 
L 3256 3500 
L 3866 3500 
L 1875 0 
L 1100 0 
L 459 3500 
z
" transform="scale(0.015625)"/>
       <path id="DejaVuSans-Oblique-68" d="M 3566 2113 
L 3156 0 
L 2578 0 
L 2988 2091 
Q 3016 2238 3031 2350 
Q 3047 2463 3047 2528 
Q 3047 2791 2881 2937 
Q 2716 3084 2419 3084 
Q 1956 3084 1617 2771 
Q 1278 2459 1178 1941 
L 800 0 
L 225 0 
L 1172 4863 
L 1747 4863 
L 1375 2950 
Q 1594 3244 1934 3414 
Q 2275 3584 2650 3584 
Q 3113 3584 3367 3334 
Q 3622 3084 3622 2631 
Q 3622 2519 3608 2391 
Q 3594 2263 3566 2113 
z
" transform="scale(0.015625)"/>
       <path id="DejaVuSans-53" d="M 3425 4513 
L 3425 3897 
Q 3066 4069 2747 4153 
Q 2428 4238 2131 4238 
Q 1616 4238 1336 4038 
Q 1056 3838 1056 3469 
Q 1056 3159 1242 3001 
Q 1428 2844 1947 2747 
L 2328 2669 
Q 3034 2534 3370 2195 
Q 3706 1856 3706 1288 
Q 3706 609 3251 259 
Q 2797 -91 1919 -91 
Q 1588 -91 1214 -16 
Q 841 59 441 206 
L 441 856 
Q 825 641 1194 531 
Q 1563 422 1919 422 
Q 2459 422 2753 634 
Q 3047 847 3047 1241 
Q 3047 1584 2836 1778 
Q 2625 1972 2144 2069 
L 1759 2144 
Q 1053 2284 737 2584 
Q 422 2884 422 3419 
Q 422 4038 858 4394 
Q 1294 4750 2059 4750 
Q 2388 4750 2728 4690 
Q 3069 4631 3425 4513 
z
" transform="scale(0.015625)"/>
       <path id="DejaVuSans-76" d="M 191 3500 
L 800 3500 
L 1894 563 
L 2988 3500 
L 3597 3500 
L 2284 0 
L 1503 0 
L 191 3500 
z
" transform="scale(0.015625)"/>
      </defs>
      <use xlink:href="#DejaVuSansDisplay-222b" transform="translate(0 0.96875)"/>
      <use xlink:href="#DejaVuSans-Oblique-76" transform="translate(73.632812 0.96875)"/>
      <use xlink:href="#DejaVuSans-Oblique-68" transform="translate(132.8125 0.96875)"/>
      <use xlink:href="#DejaVuSans-64" transform="translate(228.661785 0.96875)"/>
      <use xlink:href="#DejaVuSans-Oblique-78" transform="translate(292.138347 0.96875)"/>
      <use xlink:href="#DejaVuSans-5b" transform="translate(416.258792 0.96875)"/>
      <use xlink:href="#DejaVuSans-53" transform="translate(455.272463 0.96875)"/>
      <use xlink:href="#DejaVuSans-76" transform="translate(518.749026 0.96875)"/>
      <use xlink:href="#DejaVuSans-5d" transform="translate(577.928713 0.96875)"/>
     </g>
    </g>
   </g>
   <g id="matplotlib.axis_6">
    <g id="ytick_15">
     <g id="line2d_33">
      <g>
       <use xlink:href="#m303085b4e6" x="444.907643" y="165.303613" style="stroke: #000000; stroke-width: 0.8"/>
      </g>
     </g>
    </g>
    <g id="ytick_16">
     <g id="line2d_34">
      <g>
       <use xlink:href="#m303085b4e6" x="444.907643" y="139.582001" style="stroke: #000000; stroke-width: 0.8"/>
      </g>
     </g>
    </g>
    <g id="ytick_17">
     <g id="line2d_35">
      <g>
       <use xlink:href="#m303085b4e6" x="444.907643" y="113.860388" style="stroke: #000000; stroke-width: 0.8"/>
      </g>
     </g>
    </g>
    <g id="ytick_18">
     <g id="line2d_36">
      <g>
       <use xlink:href="#m303085b4e6" x="444.907643" y="88.138776" style="stroke: #000000; stroke-width: 0.8"/>
      </g>
     </g>
    </g>
    <g id="ytick_19">
     <g id="line2d_37">
      <g>
       <use xlink:href="#m303085b4e6" x="444.907643" y="62.417164" style="stroke: #000000; stroke-width: 0.8"/>
      </g>
     </g>
    </g>
    <g id="ytick_20">
     <g id="line2d_38">
      <g>
       <use xlink:href="#m303085b4e6" x="444.907643" y="36.695552" style="stroke: #000000; stroke-width: 0.8"/>
      </g>
     </g>
    </g>
    <g id="ytick_21">
     <g id="line2d_39">
      <g>
       <use xlink:href="#m303085b4e6" x="444.907643" y="10.97394" style="stroke: #000000; stroke-width: 0.8"/>
      </g>
     </g>
    </g>
   </g>
   <g id="line2d_40">
    <path d="M 567.177391 165.303613 
L 555.005325 160.15929 
L 542.96662 155.014968 
L 531.193172 149.870645 
L 519.813975 144.726323 
L 508.953702 139.582001 
L 498.731339 134.437678 
L 489.258886 129.293356 
L 480.640124 124.149033 
L 472.969483 119.004711 
L 466.331003 113.860388 
L 460.797417 108.716066 
L 456.429353 103.571744 
L 453.274667 98.427421 
L 451.367923 93.283099 
L 450.730012 88.138776 
L 451.367923 82.994454 
L 453.274667 77.850131 
L 456.429353 72.705809 
L 460.797417 67.561487 
L 466.331003 62.417164 
L 472.969483 57.272842 
L 480.640124 52.128519 
L 489.258886 46.984197 
L 498.731339 41.839874 
L 508.953702 36.695552 
L 519.813975 31.55123 
L 531.193172 26.406907 
L 542.96662 21.262585 
L 555.005325 16.118262 
L 567.177391 10.97394 
" clip-path="url(#p4699c6f617)" style="fill: none; stroke: #1f77b4; stroke-width: 1.5; stroke-linecap: square"/>
   </g>
   <g id="patch_85">
    <path d="M 444.907643 178.421635 
L 444.907643 3.00024 
" style="fill: none; stroke: #000000; stroke-width: 0.8; stroke-linejoin: miter; stroke-linecap: square"/>
   </g>
   <g id="patch_86">
    <path d="M 572.99976 178.421635 
L 572.99976 3.00024 
" style="fill: none; stroke: #000000; stroke-width: 0.8; stroke-linejoin: miter; stroke-linecap: square"/>
   </g>
   <g id="patch_87">
    <path d="M 444.907643 178.421635 
L 572.99976 178.421635 
" style="fill: none; stroke: #000000; stroke-width: 0.8; stroke-linejoin: miter; stroke-linecap: square"/>
   </g>
   <g id="patch_88">
    <path d="M 444.907643 3.00024 
L 572.99976 3.00024 
" style="fill: none; stroke: #000000; stroke-width: 0.8; stroke-linejoin: miter; stroke-linecap: square"/>
   </g>
  </g>
 </g>
 <defs>
  <clipPath id="p7fc86b13e4">
   <rect x="36.403365" y="3.00024" width="256.184234" height="175.421395"/>
  </clipPath>
  <clipPath id="p605963bada">
   <rect x="302.088079" y="3.00024" width="128.092117" height="175.421395"/>
  </clipPath>
  <clipPath id="p4699c6f617">
   <rect x="444.907643" y="3.00024" width="128.092117" height="175.421395"/>
  </clipPath>
 </defs>
</svg>
